<?xml version="1.0" encoding="UTF-8"?>
<svg version="1.1" xmlns="http://www.w3.org/2000/svg" width="350" height="350">
<path d="M0 0 C115.5 0 231 0 350 0 C350 115.5 350 231 350 350 C234.5 350 119 350 0 350 C0 234.5 0 119 0 0 Z " fill="#FEFEFD" transform="translate(0,0)"/>
<path d="M0 0 C3 1 3 1 4.46484375 3.37890625 C13.40668455 22.7094109 18.24089499 46.00333401 11.19848633 66.6730957 C9.1872902 72.04573411 6.57383548 76.54430901 3 81 C2.59652344 81.598125 2.19304687 82.19625 1.77734375 82.8125 C-6.63080799 94.33192501 -23.16686482 98.53590658 -36 103 C-44.68571204 106.10204001 -52.77430717 109.96226028 -59 117 C-62.57077336 106.31624611 -62.9080555 92.81626986 -58.32421875 82.41015625 C-52.63805649 72.06100546 -45.07210497 62.99355403 -35.578125 55.97265625 C-31.69246653 52.99953879 -28.02125398 49.7776251 -24.34106445 46.55517578 C-20.21658768 43 -20.21658768 43 -18 43 C-18 42.34 -18 41.68 -18 41 C-16.843068 39.843068 -15.68245739 38.6895886 -14.50390625 37.5546875 C-10.31393124 33.22323282 -7.07548408 28.66577644 -5 23 C-5.53367187 23.6290625 -6.06734375 24.258125 -6.6171875 24.90625 C-14.58452564 34.05903984 -23.49502073 40.79961525 -33.58325195 47.40771484 C-37.08839006 49.70494364 -40.49310472 52.06138689 -43.8125 54.625 C-47 57 -47 57 -49 57 C-49.31563182 51.73946963 -48.66590937 48.55426184 -46 44 C-51.27540924 48.68925266 -54.77772906 53.61036813 -55.25 60.8125 C-55.56235105 64.84182856 -57.26611964 66.92984491 -59.75 70.0625 C-64.77651657 76.48125317 -66.82883712 83.26523225 -69 91 C-71.9905749 89.50471255 -72.31662288 87.29960967 -73.5625 84.25 C-73.99691406 83.20328125 -74.43132812 82.1565625 -74.87890625 81.078125 C-78.75075404 70.44740703 -77.54735294 60.22456965 -73 50 C-71.2035796 46.82504309 -69.22016821 43.8917691 -67 41 C-66.37609375 40.16082031 -65.7521875 39.32164062 -65.109375 38.45703125 C-56.52748662 28.46072053 -40.88976379 23.63611444 -28.75 19.4375 C-22.18785497 17.16022592 -16.09350907 14.32542111 -10 11 C-9.0409375 10.49339844 -9.0409375 10.49339844 -8.0625 9.9765625 C-3.80001561 7.48300913 -2.14649864 4.29299727 0 0 Z " fill="#7CB206" transform="translate(206,114)"/>
<path d="M0 0 C3 1 3 1 4.5 3.58984375 C12.87812703 22.2879033 12.87812703 22.2879033 11 28 C8.79463821 23.9728176 7.54339792 20.56454251 7 16 C6.01 16 5.02 16 4 16 C4 14.35 4 12.7 4 11 C3.01 10.505 3.01 10.505 2 10 C2 9.34 2 8.68 2 8 C1.50371094 8.31453125 1.00742188 8.6290625 0.49609375 8.953125 C-11.46481876 16.48827292 -11.46481876 16.48827292 -16 18 C-16.495 19.485 -16.495 19.485 -17 21 C-17.55945313 20.78601563 -18.11890625 20.57203125 -18.6953125 20.3515625 C-21.80955672 19.8765083 -23.15798792 20.84297761 -25.875 22.375 C-29.70844382 24.41466034 -32.69366174 25.37199234 -37 26 C-49.7096928 30.13287214 -60.22076769 37.05145083 -68 48 C-69.16953416 50.42383077 -69.16953416 50.42383077 -70 53 C-70.37125 54.03125 -70.7425 55.0625 -71.125 56.125 C-72.14558081 58.97746964 -72.14558081 58.97746964 -72 62 C-72.3403125 63.5159375 -72.3403125 63.5159375 -72.6875 65.0625 C-73.04446166 69.56021686 -72.14853718 72.55758771 -70.69140625 76.765625 C-70 79 -70 79 -70 82 C-69.34 80.35 -68.68 78.7 -68 77 C-67.34 77 -66.68 77 -66 77 C-65.896875 76.29875 -65.79375 75.5975 -65.6875 74.875 C-64.90640997 71.60862353 -63.57941257 68.9528148 -62 66 C-61.34 66 -60.68 66 -60 66 C-60.08121094 64.99453125 -60.16242188 63.9890625 -60.24609375 62.953125 C-59.95096709 58.21236019 -58.54823871 55.67619242 -56.0625 51.75 C-53.15063862 47.06528581 -53.15063862 47.06528581 -51 42 C-49.35 42 -47.7 42 -46 42 C-45.67 43.65 -45.34 45.3 -45 47 C-42.03 47.495 -42.03 47.495 -39 48 C-38.62488281 47.43410156 -38.24976563 46.86820313 -37.86328125 46.28515625 C-33.61821694 40.20092051 -33.61821694 40.20092051 -30.5 39.1875 C-29.2625 39.0946875 -29.2625 39.0946875 -28 39 C-24.74928039 37.79166418 -24.74928039 37.79166418 -22 36 C-21.87109375 35.33613281 -21.7421875 34.67226562 -21.609375 33.98828125 C-21.30773437 33.00408203 -21.30773437 33.00408203 -21 32 C-18.71402389 30.98010297 -16.4617407 30.4907984 -14.03125 29.90625 C-13.3609375 29.6071875 -12.690625 29.308125 -12 29 C-11.14941586 26.97666593 -11.14941586 26.97666593 -11 25 C-10.34 25 -9.68 25 -9 25 C-8.67 23.68 -8.34 22.36 -8 21 C-7.34 21 -6.68 21 -6 21 C-6 19.35 -6 17.7 -6 16 C-5.34 16 -4.68 16 -4 16 C-4 16.66 -4 17.32 -4 18 C-2.515 18.495 -2.515 18.495 -1 19 C-1.495 20.485 -1.495 20.485 -2 22 C-0.68 22 0.64 22 2 22 C1.45912682 25.78611227 -0.11722332 27.55400767 -3 30 C-3.66 30 -4.32 30 -5 30 C-5.495 31.485 -5.495 31.485 -6 33 C-6.99 33 -7.98 33 -9 33 C-7.66666667 29.66666667 -6.33333333 26.33333333 -5 23 C-5.53367187 23.6290625 -6.06734375 24.258125 -6.6171875 24.90625 C-14.58452564 34.05903984 -23.49502073 40.79961525 -33.58325195 47.40771484 C-37.08839006 49.70494364 -40.49310472 52.06138689 -43.8125 54.625 C-47 57 -47 57 -49 57 C-49.31563182 51.73946963 -48.66590937 48.55426184 -46 44 C-51.27540924 48.68925266 -54.77772906 53.61036813 -55.25 60.8125 C-55.56235105 64.84182856 -57.26611964 66.92984491 -59.75 70.0625 C-64.77651657 76.48125317 -66.82883712 83.26523225 -69 91 C-71.9905749 89.50471255 -72.31662288 87.29960967 -73.5625 84.25 C-73.99691406 83.20328125 -74.43132812 82.1565625 -74.87890625 81.078125 C-78.75075404 70.44740703 -77.54735294 60.22456965 -73 50 C-71.2035796 46.82504309 -69.22016821 43.8917691 -67 41 C-66.37609375 40.16082031 -65.7521875 39.32164062 -65.109375 38.45703125 C-56.52748662 28.46072053 -40.88976379 23.63611444 -28.75 19.4375 C-22.18785497 17.16022592 -16.09350907 14.32542111 -10 11 C-9.0409375 10.49339844 -9.0409375 10.49339844 -8.0625 9.9765625 C-3.80001561 7.48300913 -2.14649864 4.29299727 0 0 Z " fill="#A7CE26" transform="translate(206,114)"/>
<path d="M0 0 C0.33 0.66 0.66 1.32 1 2 C1.66 2.33 2.32 2.66 3 3 C2.67 3.33 2.34 3.66 2 4 C3.65 4.66 5.3 5.32 7 6 C7 5.67 7 5.34 7 5 C8.98 5 10.96 5 13 5 C10.75926734 6.72364051 8.59309952 8.22998723 6.125 9.625 C-0.64380984 14.76929548 -3.83077461 21.9510321 -6 30 C-5.68289062 29.50371094 -5.36578125 29.00742188 -5.0390625 28.49609375 C2.29684188 17.81647605 15.71668976 9.72496834 28 6 C25.17356591 10.23965114 21.43691789 11.21630658 16.84765625 13.20703125 C13.40228262 15.37634057 12.74351422 17.4021958 11 21 C8.73828125 22.2421875 8.73828125 22.2421875 6.3125 22.875 C5.50425781 23.09929687 4.69601563 23.32359375 3.86328125 23.5546875 C2.94095703 23.77511719 2.94095703 23.77511719 2 24 C1.67 25.65 1.34 27.3 1 29 C1.66 29.33 2.32 29.66 3 30 C3 30.66 3 31.32 3 32 C9.12622469 29.79033067 9.12622469 29.79033067 15 27 C15 26.34 15 25.68 15 25 C15.86625 25.185625 16.7325 25.37125 17.625 25.5625 C21.08439911 26.01094062 23.63107263 25.86181863 27 25 C27.33 24.34 27.66 23.68 28 23 C30.32156597 22.59270772 32.6568787 22.25561323 35 22 C31.18047458 25.43339853 26.63293972 26.76334194 21.875 28.4375 C20.15601398 29.05924367 18.43726137 29.68163307 16.71875 30.3046875 C15.14603275 30.87034642 13.57313822 31.4355129 12 32 C3.31442587 35.11734715 -4.76856982 38.95577458 -11 46 C-12.84261924 40.48688322 -13.38662506 35.55032567 -13.375 29.75 C-13.37338867 28.91315674 -13.37177734 28.07631348 -13.37011719 27.21411133 C-13.23839718 20.54223461 -12.12529528 14.96160778 -9 9 C-8.66484375 8.35417969 -8.3296875 7.70835937 -7.984375 7.04296875 C-6.53831813 4.59270572 -5.54690452 3.18751012 -2.8125 2.25 C-2.214375 2.1675 -1.61625 2.085 -1 2 C-0.67 1.34 -0.34 0.68 0 0 Z " fill="#327104" transform="translate(158,185)"/>
<path d="M0 0 C5.88633954 -0.31800511 10.00787519 0.37138015 15.3125 3.0625 C15.96202637 3.3826709 16.61155273 3.7028418 17.28076172 4.03271484 C19.20132008 4.99701787 21.10278965 5.99064923 23 7 C23.97582031 7.51691406 24.95164063 8.03382812 25.95703125 8.56640625 C41.77037112 17.80436029 53.90449181 33.26056821 60.3203125 50.22265625 C61.00253417 53.01035513 61.00241341 54.35438993 60 57 C57.625 57.625 57.625 57.625 55 58 C52.82514832 55.82514832 52.33461107 54.48321106 51.3125 51.625 C45.22526991 36.09361147 35.70423018 25.25584105 22 16 C21.24847656 15.443125 20.49695313 14.88625 19.72265625 14.3125 C14.580325 10.5929114 9.47976562 8.57917229 3.40625 6.76171875 C1 6 1 6 0 5 C-0.04063832 3.33382885 -0.042721 1.66611905 0 0 Z " fill="#70A51A" transform="translate(194,94)"/>
<path d="M0 0 C0 1.65 0 3.3 0 5 C-0.6290625 5.24234375 -1.258125 5.4846875 -1.90625 5.734375 C-6.19897229 7.41526023 -10.39879657 9.13908647 -14.5 11.25 C-18 13 -18 13 -20 13 C-20.33 13.99 -20.66 14.98 -21 16 C-22.6015625 17.17578125 -22.6015625 17.17578125 -24.625 18.3125 C-39.69156532 27.35243919 -47.09019296 42.36717415 -54 58 C-55.66611905 58.042721 -57.33382885 58.04063832 -59 58 C-59.33 57.67 -59.66 57.34 -60 57 C-59.06150987 42.29698791 -49.80162323 30.24297212 -40 20 C-39.21625 19.13375 -38.4325 18.2675 -37.625 17.375 C-22.84210526 4 -22.84210526 4 -14 4 C-14 3.34 -14 2.68 -14 2 C-9.126739 0.4087311 -5.19209404 -0.21192221 0 0 Z " fill="#F2BE2B" transform="translate(156,94)"/>
<path d="M0 0 C2.625 0.375 2.625 0.375 5 1 C5.52889008 6.64149423 3.81460717 10.16180491 1.25 15 C0.72792969 16.02867187 0.72792969 16.02867187 0.1953125 17.078125 C-9.87717188 36.62620581 -26.24906948 49.79631473 -46.34375 58.1875 C-49.05013799 59.01533633 -51.18865525 59.16297651 -54 59 C-54.33 57.35 -54.66 55.7 -55 54 C-54.34 54 -53.68 54 -53 54 C-53 53.34 -53 52.68 -53 52 C-51.90945312 51.70609375 -51.90945312 51.70609375 -50.796875 51.40625 C-35.58483996 46.8816447 -22.58630923 36.58031412 -13 24 C-12.49855469 23.34773438 -11.99710938 22.69546875 -11.48046875 22.0234375 C-7.59141398 16.60829795 -5.28073128 11.00008414 -3.078125 4.72265625 C-2 2 -2 2 0 0 Z " fill="#EDAA1E" transform="translate(249,188)"/>
<path d="M0 0 C1.2065625 0.0309375 1.2065625 0.0309375 2.4375 0.0625 C2.80875 1.155625 3.18 2.24875 3.5625 3.375 C8.02040814 15.15217127 16.64308472 32.16529236 28.4375 38.0625 C28.4375 38.7225 28.4375 39.3825 28.4375 40.0625 C29.16839844 40.33449219 29.89929688 40.60648438 30.65234375 40.88671875 C33.32089313 42.01327326 35.56638921 43.31435958 38 44.875 C42.83016779 47.84293443 47.79857121 50.00845032 53.06640625 52.08203125 C55.4375 53.0625 55.4375 53.0625 56.4375 54.0625 C56.47813832 55.72867115 56.480221 57.39638095 56.4375 59.0625 C42.24849021 59.77614842 28.72456279 48.9761086 18.55859375 39.99609375 C11.33573058 33.37201717 5.80463827 25.79677653 1.4375 17.0625 C0.73947266 15.79019531 0.73947266 15.79019531 0.02734375 14.4921875 C-4.36691568 6.29120193 -4.36691568 6.29120193 -3.5625 1.0625 C-2.5625 0.0625 -2.5625 0.0625 0 0 Z " fill="#6C9D27" transform="translate(99.5625,187.9375)"/>
<path d="M0 0 C0.495 0.99 0.495 0.99 1 2 C-1.94809249 9.061157 -6.28448018 15.85897831 -12 21 C-12.66 21 -13.32 21 -14 21 C-14 21.66 -14 22.32 -14 23 C-16.13182499 24.80546414 -18.27338796 26.50626128 -20.5 28.1875 C-21.79296227 29.18191144 -23.08463638 30.17800008 -24.375 31.17578125 C-25.00148437 31.65998535 -25.62796875 32.14418945 -26.2734375 32.64306641 C-29.0615408 34.83428221 -31.71225227 37.16402429 -34.34375 39.5390625 C-35.83216676 40.85195841 -37.41223072 42.05917304 -39 43.25 C-48.14328295 50.79445752 -55.19193091 63.26235729 -56.4140625 74.96484375 C-56.48367187 76.27582031 -56.55328125 77.58679688 -56.625 78.9375 C-56.66367188 79.62134766 -56.70234375 80.30519531 -56.7421875 81.00976562 C-56.83522412 82.67279513 -56.91863787 84.33635847 -57 86 C-57.33 86 -57.66 86 -58 86 C-58.58378378 67.16756757 -58.58378378 67.16756757 -54 58 C-53.34 58 -52.68 58 -52 58 C-52 55.03 -52 52.06 -52 49 C-52.99 49 -53.98 49 -55 49 C-54.52820313 48.17048828 -54.52820313 48.17048828 -54.046875 47.32421875 C-52.88976822 44.75526899 -52.58825415 42.60309676 -52.25 39.8125 C-51.26641896 33.95035701 -49.02219159 29.4008712 -45 25 C-44.01 24.67 -43.02 24.34 -42 24 C-42.309375 24.845625 -42.61875 25.69125 -42.9375 26.5625 C-44.01611245 30.05212851 -44.52296008 33.38567053 -45 37 C-44.23558594 36.46632812 -43.47117188 35.93265625 -42.68359375 35.3828125 C-41.61238281 34.63773438 -40.54117188 33.89265625 -39.4375 33.125 C-38.85685791 32.72007324 -38.27621582 32.31514648 -37.67797852 31.89794922 C-34.55731171 29.7322156 -31.41865778 27.60964597 -28.21875 25.5625 C-17.41114388 18.62302611 -6.9002979 11.08976448 0 0 Z " fill="#F6FBED" transform="translate(202,134)"/>
<path d="M0 0 C2.62855579 2.02774304 4.02292805 3.66542157 4.55859375 6.9921875 C4.6724807 11.40028257 4.65419075 13.94982753 2.25 17.75 C-1.66649601 20.22778319 -5.18464045 21.01037392 -9.8125 20.6875 C-13.55860643 19.28099484 -15.22925958 17.25838799 -17.11328125 13.69140625 C-18.40732482 9.98277858 -17.80699522 7.47901304 -16.8125 3.6875 C-12.56064354 -1.8399134 -6.32357093 -2.95099977 0 0 Z " fill="#F1A314" transform="translate(261.8125,160.3125)"/>
<path d="M0 0 C3.6578218 2.03993908 5.66946174 3.50419262 8 7 C8.5413058 10.51848769 8.69821425 12.91626867 6.7265625 15.9765625 C2.84519573 20.57740214 2.84519573 20.57740214 0 22 C-4.96940167 22.22455057 -8.1632292 21.68307821 -12.0625 18.5 C-14.35028568 15.19187785 -14.71666227 12.08464317 -14.49609375 8.12109375 C-13.6867262 4.66056951 -11.77824909 3.06753421 -9 1 C-5.64870516 -0.11709828 -3.51689744 -0.34479387 0 0 Z " fill="#7DB20E" transform="translate(98,159)"/>
<path d="M0 0 C3 1 3 1 4.5 3.58984375 C12.87812703 22.2879033 12.87812703 22.2879033 11 28 C8.79463821 23.9728176 7.54339792 20.56454251 7 16 C6.01 16 5.02 16 4 16 C4 14.35 4 12.7 4 11 C3.01 10.505 3.01 10.505 2 10 C2 9.34 2 8.68 2 8 C1.50371094 8.31453125 1.00742188 8.6290625 0.49609375 8.953125 C-11.46481876 16.48827292 -11.46481876 16.48827292 -16 18 C-16.495 19.485 -16.495 19.485 -17 21 C-17.55945313 20.78601563 -18.11890625 20.57203125 -18.6953125 20.3515625 C-21.80955672 19.8765083 -23.15798792 20.84297761 -25.875 22.375 C-29.70844382 24.41466034 -32.69366174 25.37199234 -37 26 C-49.7096928 30.13287214 -60.22076769 37.05145083 -68 48 C-69.23847231 50.68335667 -70.12759747 53.38279242 -71.0625 56.1875 C-72 59 -72 59 -73 61 C-73.66 61 -74.32 61 -75 61 C-75.33 64.96 -75.66 68.92 -76 73 C-76.33 73 -76.66 73 -77 73 C-77.874409 60.66111748 -74.49879072 50.76717491 -67 41 C-66.37609375 40.16082031 -65.7521875 39.32164062 -65.109375 38.45703125 C-56.52748662 28.46072053 -40.88976379 23.63611444 -28.75 19.4375 C-22.18785497 17.16022592 -16.09350907 14.32542111 -10 11 C-9.0409375 10.49339844 -9.0409375 10.49339844 -8.0625 9.9765625 C-3.80001561 7.48300913 -2.14649864 4.29299727 0 0 Z " fill="#B7D930" transform="translate(206,114)"/>
<path d="M0 0 C0.76441406 0.07605469 1.52882812 0.15210937 2.31640625 0.23046875 C4.90366989 0.9404177 5.86095579 1.64776499 7.4375 3.8125 C8.64354956 8.31610279 8.97340669 12.45863047 7.25 16.8125 C4.26784007 20.10315924 2.43310585 20.70388845 -2 21.1875 C-6.14405564 20.75128362 -7.65380272 19.72119728 -10.5625 16.8125 C-12.15939041 13.61871918 -11.93598957 10.28728685 -11.5625 6.8125 C-10.3010601 3.91118824 -9.41815707 2.34934694 -6.73828125 0.66796875 C-4.22236136 -0.32123494 -2.67108907 -0.31185304 0 0 Z " fill="#A3CE14" transform="translate(176.5625,83.1875)"/>
<path d="M0 0 C6.09067026 -0.42004622 9.10816881 -0.0566405 14 4 C15.60086627 7.20173254 15.49917089 10.52577059 15 14 C13.20636089 16.8100346 11.98119065 18.50940468 9 20 C4.25383306 20.65271451 1.01722254 20.69934049 -3 17.9375 C-5.39441358 14.42070506 -6 12.24773336 -6 8 C-4.75 5.125 -4.75 5.125 -3 3 C-2.01 2.67 -1.02 2.34 0 2 C0 1.34 0 0.68 0 0 Z " fill="#EEA317" transform="translate(170,236)"/>
<path d="M0 0 C1.2065625 0.0309375 1.2065625 0.0309375 2.4375 0.0625 C2.80875 1.155625 3.18 2.24875 3.5625 3.375 C6.17365052 10.32164573 9.74234553 16.93059225 14.1875 22.875 C17.12341892 27.03421847 18.30629419 31.16060814 19.4375 36.0625 C20.4275 36.0625 21.4175 36.0625 22.4375 36.0625 C22.7675 37.3825 23.0975 38.7025 23.4375 40.0625 C18.3082203 39.64979933 16.25496853 38.45691958 12.9375 34.5625 C5.81693274 26.12993543 -3.01595523 15.10047744 -3.7890625 3.73046875 C-3.47947978 0.08486536 -3.47947978 0.08486536 0 0 Z " fill="#659F12" transform="translate(99.5625,187.9375)"/>
<path d="M0 0 C0.33 0.66 0.66 1.32 1 2 C1.66 2.33 2.32 2.66 3 3 C2.67 3.33 2.34 3.66 2 4 C3.65 4.66 5.3 5.32 7 6 C7 5.67 7 5.34 7 5 C8.98 5 10.96 5 13 5 C10.75926734 6.72364051 8.59309952 8.22998723 6.125 9.625 C1.98186955 12.77377914 -0.33856562 16.58315145 -3 21 C-3.5534764 18.92446352 -4 17.15634036 -4 15 C-4.99 17.475 -4.99 17.475 -6 20 C-6.99 20 -7.98 20 -9 20 C-9.2165625 21.299375 -9.2165625 21.299375 -9.4375 22.625 C-9.78678069 24.72068411 -10.19337694 26.80866719 -10.6875 28.875 C-11.10196337 33.01963368 -10.16872841 36.01257366 -9 40 C-8.67 39.34 -8.34 38.68 -8 38 C-6.68 38 -5.36 38 -4 38 C-3.67 37.01 -3.34 36.02 -3 35 C-1.35 35 0.3 35 2 35 C-0.53578604 37.02862883 -3.0714959 39.05617535 -5.625 41.0625 C-7.5457726 42.62944607 -9.29572385 44.20602511 -11 46 C-12.84261924 40.48688322 -13.38662506 35.55032567 -13.375 29.75 C-13.37338867 28.91315674 -13.37177734 28.07631348 -13.37011719 27.21411133 C-13.23839718 20.54223461 -12.12529528 14.96160778 -9 9 C-8.66484375 8.35417969 -8.3296875 7.70835937 -7.984375 7.04296875 C-6.53831813 4.59270572 -5.54690452 3.18751012 -2.8125 2.25 C-2.214375 2.1675 -1.61625 2.085 -1 2 C-0.67 1.34 -0.34 0.68 0 0 Z " fill="#488408" transform="translate(158,185)"/>
<path d="M0 0 C5.88740993 -0.31806294 10.00631579 0.37301577 15.3125 3.0625 C15.95550049 3.37687012 16.59850098 3.69124023 17.26098633 4.01513672 C25.15747439 7.95602469 32.659787 11.80605789 38 19 C36.68 19 35.36 19 34 19 C34 20.65 34 22.3 34 24 C30.62247578 22.02378902 27.42147543 19.91551003 24.25 17.625 C16.56702888 12.2264626 8.79121694 8.28523556 0 5 C0 3.35 0 1.7 0 0 Z " fill="#A1CB17" transform="translate(194,94)"/>
<path d="M0 0 C-6.66262897 3.88324825 -13.29439388 7.72054862 -20.25 11.0625 C-25.92788904 13.84458982 -30.94867587 17.21383256 -36 21 C-37.423125 22.0209375 -37.423125 22.0209375 -38.875 23.0625 C-41.462437 25.42163374 -43.17494549 28.0258371 -45 31 C-46 28 -46 28 -44.92578125 25.2578125 C-44.12720703 23.70707031 -44.12720703 23.70707031 -43.3125 22.125 C-42.79300781 21.09632813 -42.27351562 20.06765625 -41.73828125 19.0078125 C-35.99896946 9.07686851 -27.70525149 5.18447354 -17 2 C-3.98630137 -1.32876712 -3.98630137 -1.32876712 0 0 Z " fill="#91C70B" transform="translate(197,185)"/>
<path d="M0 0 C0.66 0 1.32 0 2 0 C2 1.32 2 2.64 2 4 C1.34 4 0.68 4 0 4 C0 4.99 0 5.98 0 7 C-0.99 7 -1.98 7 -3 7 C-3.12375 7.763125 -3.2475 8.52625 -3.375 9.3125 C-4 12 -4 12 -6 15 C-6.47580388 16.3201495 -6.90972498 17.65576925 -7.3125 19 C-9.08442781 24.54412463 -11.51493045 29.74501104 -14 35 C-15.66611905 35.042721 -17.33382885 35.04063832 -19 35 C-19.33 34.67 -19.66 34.34 -20 34 C-19.51689063 26.43128646 -16.66485009 18.02543136 -12 12 C-10.67405895 11.63837971 -9.34061543 11.30271961 -8 11 C-6.71563266 9.0162233 -6.71563266 9.0162233 -6 7 C-5.34 7 -4.68 7 -4 7 C-3.67 5.68 -3.34 4.36 -3 3 C-2.34 3 -1.68 3 -1 3 C-0.67 2.01 -0.34 1.02 0 0 Z " fill="#F2B21B" transform="translate(116,117)"/>
<path d="M0 0 C-4.13730648 3.69946269 -8.15579754 6.31378473 -13.25 8.5625 C-13.90677734 8.8613208 -14.56355469 9.1601416 -15.24023438 9.46801758 C-19.71956662 11.48777525 -24.25566033 13.32716979 -28.84375 15.0859375 C-31.0205838 16.00872574 -32.97647283 17.09340781 -35 18.3125 C-35.99 18.869375 -36.98 19.42625 -38 20 C-38.66 19.67 -39.32 19.34 -40 19 C-38.625 17.5 -38.625 17.5 -37 16 C-36.34 16 -35.68 16 -35 16 C-35 15.34 -35 14.68 -35 14 C-27.78630723 7.55089218 -9.90614642 -3.96245857 0 0 Z " fill="#9BCE0C" transform="translate(201,165)"/>
<path d="M0 0 C2.87923084 -0.25317375 4.48357626 -0.34743142 6.921875 1.29296875 C21.93009378 16.84635787 21.93009378 16.84635787 23 26 C22.236875 25.21625 21.47375 24.4325 20.6875 23.625 C18.09108195 20.92742283 18.09108195 20.92742283 15 19 C14.8125 15.875 14.8125 15.875 15 13 C11.88667752 13.66868314 11.88667752 13.66868314 10.8125 16.0625 C10.544375 16.701875 10.27625 17.34125 10 18 C9.29423828 17.07767578 9.29423828 17.07767578 8.57421875 16.13671875 C7.95160156 15.32847656 7.32898438 14.52023438 6.6875 13.6875 C6.07261719 12.88699219 5.45773438 12.08648437 4.82421875 11.26171875 C3.10985254 9.02520637 3.10985254 9.02520637 1.28125 7.40625 C0 6 0 6 -0.1875 2.8125 C-0.125625 1.884375 -0.06375 0.95625 0 0 Z " fill="#89B527" transform="translate(228,113)"/>
<path d="M0 0 C0.66 0.33 1.32 0.66 2 1 C0.6875 3 0.6875 3 -1 5 C-1.99 5 -2.98 5 -4 5 C-4 6.32 -4 7.64 -4 9 C-3.01 9.33 -2.02 9.66 -1 10 C-1 9.34 -1 8.68 -1 8 C-0.34 8 0.32 8 1 8 C1 7.34 1 6.68 1 6 C2.98 5.67 4.96 5.34 7 5 C6.01 5.7734375 6.01 5.7734375 5 6.5625 C4.01 7.366875 3.02 8.17125 2 9 C1.05833984 9.76376953 1.05833984 9.76376953 0.09765625 10.54296875 C-6.89681347 16.40973126 -11.67241994 23.01062143 -16 31 C-16.6875 29.25 -16.6875 29.25 -17 27 C-15.625 25 -15.625 25 -14 23 C-13.29485154 20.85266073 -13.29485154 20.85266073 -13 19 C-12.01 19 -11.02 19 -10 19 C-10 18.01 -10 17.02 -10 16 C-9.34 16 -8.68 16 -8 16 C-8 14.68 -8 13.36 -8 12 C-11.91603304 14.79420492 -11.91603304 14.79420492 -14 19 C-15.87617698 20.84499398 -17.92737609 22.3683599 -20 24 C-20.33 23.34 -20.66 22.68 -21 22 C-16.35188862 16.10206311 -11.9509097 10.59843022 -6 6 C-4.31471312 4.35216394 -2.64302953 2.68997323 -1 1 C-0.67 0.67 -0.34 0.34 0 0 Z " fill="#EEB935" transform="translate(126,105)"/>
<path d="M0 0 C1.875 0.3125 1.875 0.3125 4 1 C6.83634436 5.25451655 6.74836793 9.00822671 6 14 C3.95361033 17.23461592 2.52440746 18.59312968 -1.1953125 19.5859375 C-5.44930469 20.21771852 -8.2810375 20.38853868 -12 18 C-14.88771256 14.09768572 -16.38313056 11.58052354 -15.9375 6.6875 C-15 3 -15 3 -12 1 C-12 4.3 -12 7.6 -12 11 C-11.34 11 -10.68 11 -10 11 C-8.95550089 14.13349732 -9.06576355 14.98968256 -10 18 C-6.535 17.505 -6.535 17.505 -3 17 C-3 16.34 -3 15.68 -3 15 C-1.02 14.34 0.96 13.68 3 13 C3 10.03 3 7.06 3 4 C2.01 3.67 1.02 3.34 0 3 C0 2.01 0 1.02 0 0 Z " fill="#E49518" transform="translate(260,161)"/>
<path d="M0 0 C5.22603767 0.53738177 9.57468046 1.83013275 14.375 4 C15.31666016 4.40992188 15.31666016 4.40992188 16.27734375 4.828125 C20.83723456 6.83723456 20.83723456 6.83723456 22 8 C22.04063832 9.66617115 22.042721 11.33388095 22 13 C15.99666876 13.6319296 11.36595205 11.37544123 6 9 C6 7.35 6 5.7 6 4 C3.69 3.67 1.38 3.34 -1 3 C-0.67 2.01 -0.34 1.02 0 0 Z " fill="#68992B" transform="translate(134,234)"/>
<path d="M0 0 C0.33 0.99 0.66 1.98 1 3 C-0.6009131 4.15037471 -2.20585225 5.29514816 -3.8125 6.4375 C-4.70582031 7.07558594 -5.59914062 7.71367187 -6.51953125 8.37109375 C-9 10 -9 10 -12 11 C-12 11.66 -12 12.32 -12 13 C-12.66 13.474375 -13.32 13.94875 -14 14.4375 C-14.99 15.2109375 -14.99 15.2109375 -16 16 C-16 16.99 -16 17.98 -16 19 C-19.96 19.495 -19.96 19.495 -24 20 C-20.21491257 11.57390084 -9.93559126 -0.81781574 0 0 Z " fill="#71A40D" transform="translate(178,168)"/>
<path d="M0 0 C1.98 0.66 3.96 1.32 6 2 C5.3503125 3.0209375 5.3503125 3.0209375 4.6875 4.0625 C3.18919016 6.67066898 2.02767268 9.26995008 0.88671875 12.046875 C-0.46318924 15.02024062 -2.13990594 17.79436007 -3.81640625 20.59375 C-6.5780942 26.20827071 -7.29627332 31.74648084 -7.625 37.9375 C-7.66367188 38.62134766 -7.70234375 39.30519531 -7.7421875 40.00976562 C-7.83522412 41.67279513 -7.91863787 43.33635847 -8 45 C-8.33 45 -8.66 45 -9 45 C-9.58378378 26.16756757 -9.58378378 26.16756757 -5 17 C-4.34 17 -3.68 17 -3 17 C-3.03480469 16.35933594 -3.06960937 15.71867188 -3.10546875 15.05859375 C-3.28987571 9.16635234 -2.7304458 5.23335445 0 0 Z " fill="#EBF3E3" transform="translate(153,175)"/>
<path d="M0 0 C3.96 0 7.92 0 12 0 C12.125 3.375 12.125 3.375 12 7 C10 9 10 9 8.0546875 9.1953125 C6.03645833 9.13020833 4.01822917 9.06510417 2 9 C2 9.99 2 10.98 2 12 C0.72125 12.2475 -0.5575 12.495 -1.875 12.75 C-5.09874435 13.42186588 -5.09874435 13.42186588 -7.125 15.8125 C-7.41375 16.534375 -7.7025 17.25625 -8 18 C-12.89795918 22.89795918 -12.89795918 22.89795918 -17.375 23.3125 C-18.24125 23.209375 -19.1075 23.10625 -20 23 C-17.14303616 19.98431595 -14.75361429 17.75168667 -11 16 C-10.55140625 15.53980469 -10.1028125 15.07960938 -9.640625 14.60546875 C-4.22215791 9.30311167 2.72574091 7.27010873 10 6 C10 4.35 10 2.7 10 1 C6.7 1.33 3.4 1.66 0 2 C0 1.34 0 0.68 0 0 Z " fill="#FCF1C0" transform="translate(146,93)"/>
<path d="M0 0 C1.2065625 0.0309375 1.2065625 0.0309375 2.4375 0.0625 C2.80875 1.155625 3.18 2.24875 3.5625 3.375 C5.31277655 8.10159223 7.73106732 12.37583659 10.23046875 16.7421875 C11.4375 19.0625 11.4375 19.0625 11.4375 21.0625 C10.4475 20.7325 9.4575 20.4025 8.4375 20.0625 C8.4375 18.7425 8.4375 17.4225 8.4375 16.0625 C7.4475 15.7325 6.4575 15.4025 5.4375 15.0625 C5.1075 14.4025 4.7775 13.7425 4.4375 13.0625 C3.1175 13.3925 1.7975 13.7225 0.4375 14.0625 C-2.48064355 9.50290071 -4.22726796 6.6465509 -3.5625 1.0625 C-2.5625 0.0625 -2.5625 0.0625 0 0 Z " fill="#76A813" transform="translate(99.5625,187.9375)"/>
<path d="M0 0 C0.33 0 0.66 0 1 0 C1.41161557 8.51221005 -0.8515613 13.30046218 -6.51171875 19.6015625 C-9.63517684 22.61224266 -12.85217832 25.53606294 -17 27 C-17.99 26.67 -18.98 26.34 -20 26 C-19 24 -19 24 -16.0625 22.6875 C-12.47737392 20.71202236 -12.3265768 19.69546393 -11 16 C-8.71253467 14.52421591 -6.59597353 13.86532451 -4 13 C-3.00674115 10.77278045 -3.00674115 10.77278045 -2.375 8.125 C-2.13523438 7.24070313 -1.89546875 6.35640625 -1.6484375 5.4453125 C-1.43445313 4.63835937 -1.22046875 3.83140625 -1 3 C-0.67 2.01 -0.34 1.02 0 0 Z " fill="#568425" transform="translate(212,180)"/>
<path d="M0 0 C1.32 0 2.64 0 4 0 C3.3125 1.9375 3.3125 1.9375 2 4 C-0.625 4.75 -0.625 4.75 -3 5 C-3.0825 5.61875 -3.165 6.2375 -3.25 6.875 C-4 9 -4 9 -5.875 10.25 C-8 11 -8 11 -11 11 C-11 11.66 -11 12.32 -11 13 C-11.66 13 -12.32 13 -13 13 C-13 13.66 -13 14.32 -13 15 C-14.65 14.67 -16.3 14.34 -18 14 C-16.59645587 10.49113968 -15.35634177 9.5732852 -12 8 C-11.34 7.01 -10.68 6.02 -10 5 C-9.05125 4.855625 -8.1025 4.71125 -7.125 4.5625 C-3.4097963 3.89376333 -2.55351837 2.63863565 0 0 Z " fill="#F8B510" transform="translate(138,100)"/>
<path d="M0 0 C2.57026772 1.76673713 4.79094864 3.80401995 7 6 C5.68 6.33 4.36 6.66 3 7 C3 8.65 3 10.3 3 12 C-6.415 6.62 -6.415 6.62 -7.8125 2.75 C-7.874375 2.1725 -7.93625 1.595 -8 1 C-5.04206277 -0.47896861 -3.29779776 -0.4355582 0 0 Z " fill="#99BF30" transform="translate(225,106)"/>
<path d="M0 0 C6.09067026 -0.42004622 9.10816881 -0.0566405 14 4 C15.60086627 7.20173254 15.49917089 10.52577059 15 14 C13.20636089 16.8100346 11.98119065 18.50940468 9 20 C4.4865048 20.53151198 1.10861497 20.86526046 -2.5625 18 C-3.2740625 17.01 -3.2740625 17.01 -4 16 C-3.34 15.67 -2.68 15.34 -2 15 C-1.01 15.66 -0.02 16.32 1 17 C3.32108669 17.70812814 5.65377147 18.38024152 8 19 C8.33 18.01 8.66 17.02 9 16 C9.99 16 10.98 16 12 16 C12.30893086 10.85115239 12.25803962 7.14659588 9 3 C5.9982949 2.19102983 3.10031137 2.01299921 0 2 C0 1.34 0 0.68 0 0 Z " fill="#DDA33D" transform="translate(170,236)"/>
<path d="M0 0 C0.66 0.33 1.32 0.66 2 1 C-0.37377097 2.45489189 -2.73302796 3.86815041 -5.23046875 5.1015625 C-10.35904 7.56446496 -10.35904 7.56446496 -13.5 12.125 C-15 15 -15 15 -17.02734375 15.87109375 C-18.62675546 16.32992012 -20.22968285 16.77667321 -21.8359375 17.2109375 C-24.92806097 18.33839046 -26.29750568 20.26120479 -28 23 C-28.99 22.67 -29.98 22.34 -31 22 C-24.23792293 12.75849467 -13.84160846 7.46916365 -4 2 C-3.26523438 1.58363281 -2.53046875 1.16726562 -1.7734375 0.73828125 C-1.18820313 0.49464844 -0.60296875 0.25101563 0 0 Z " fill="#488103" transform="translate(184,191)"/>
<path d="M0 0 C0.66 0 1.32 0 2 0 C2 0.66 2 1.32 2 2 C2.66 2 3.32 2 4 2 C2.47475964 5.60286506 0.32514563 7.94299983 -2.4375 10.6875 C-3.21996094 11.47511719 -4.00242188 12.26273438 -4.80859375 13.07421875 C-7 15 -7 15 -10 16 C-10.625 13.6875 -10.625 13.6875 -11 11 C-9.04036843 8.06055265 -8.45895159 7.5231689 -5.5 6.0625 C-2.55282011 4.47555698 -1.06313774 3.30753965 0 0 Z " fill="#E9AA25" transform="translate(236,216)"/>
<path d="M0 0 C0.66 0 1.32 0 2 0 C1.690625 0.845625 1.38125 1.69125 1.0625 2.5625 C-0.01538821 6.0497854 -0.56581304 9.38177535 -1 13 C-0.34 13.33 0.32 13.66 1 14 C0.01 14 -0.98 14 -2 14 C-2.66 12.68 -3.32 11.36 -4 10 C-4.18175781 10.99580078 -4.18175781 10.99580078 -4.3671875 12.01171875 C-5.22547708 16.53424459 -6.03971311 20.79938524 -8 25 C-8.99 25 -9.98 25 -11 25 C-10.68546875 24.44699219 -10.3709375 23.89398438 -10.046875 23.32421875 C-8.88976822 20.75526899 -8.58825415 18.60309676 -8.25 15.8125 C-7.22453584 9.60135532 -4.47503006 4.47503006 0 0 Z " fill="#F7FEDC" transform="translate(158,158)"/>
<path d="M0 0 C-9.81480338 4.46266841 -19.66134125 7.96553652 -30 11 C-30 10.34 -30 9.68 -30 9 C-28.3203125 7.7109375 -28.3203125 7.7109375 -26.125 6.375 C-25.40570313 5.92898437 -24.68640625 5.48296875 -23.9453125 5.0234375 C-22 4 -22 4 -20 4 C-20 3.34 -20 2.68 -20 2 C-19.13375 2.185625 -18.2675 2.37125 -17.375 2.5625 C-13.91560089 3.01094062 -11.36892737 2.86181863 -8 2 C-7.67 1.34 -7.34 0.68 -7 0 C-3.86650268 -1.04449911 -3.01031744 -0.93423645 0 0 Z " fill="#42741F" transform="translate(193,208)"/>
<path d="M0 0 C-1 8.57142857 -1 8.57142857 -2 12 C-2.66 12 -3.32 12 -4 12 C-4.33 13.98 -4.66 15.96 -5 18 C-6.32 18 -7.64 18 -9 18 C-8.33922261 9.9385159 -8.33922261 9.9385159 -5 7 C-4.32136945 5.0040278 -3.65358081 3.00431449 -3 1 C-1 0 -1 0 0 0 Z " fill="#F3AA0D" transform="translate(107,132)"/>
<path d="M0 0 C0.66 0.33 1.32 0.66 2 1 C2 1.66 2 2.32 2 3 C2.59425781 3.07734375 3.18851563 3.1546875 3.80078125 3.234375 C6.74236329 4.25844264 7.51650413 5.655446 9.1875 8.25 C9.69667969 9.01828125 10.20585937 9.7865625 10.73046875 10.578125 C12.04280589 13.08166046 12.59035531 15.2163903 13 18 C12.236875 17.21625 11.47375 16.4325 10.6875 15.625 C8.09108195 12.92742283 8.09108195 12.92742283 5 11 C4.8125 7.875 4.8125 7.875 5 5 C1.88667752 5.66868314 1.88667752 5.66868314 0.8125 8.0625 C0.544375 8.701875 0.27625 9.34125 0 10 C-2.09749995 7.64031256 -2.96905704 6.45383006 -3.1875 3.25 C-3.125625 2.5075 -3.06375 1.765 -3 1 C-2.01 0.67 -1.02 0.34 0 0 Z " fill="#7DB013" transform="translate(238,121)"/>
<path d="M0 0 C1.0625 1.75 1.0625 1.75 2 4 C1.835 4.61875 1.67 5.2375 1.5 5.875 C0.91171528 8.37521006 1.24271065 9.7978023 1.9375 12.25 C2.4634375 14.10625 2.4634375 14.10625 3 16 C3.33 15.34 3.66 14.68 4 14 C5.32 14 6.64 14 8 14 C8.33 13.01 8.66 12.02 9 11 C10.65 11 12.3 11 14 11 C11.46421396 13.02862883 8.9285041 15.05617535 6.375 17.0625 C4.4542274 18.62944607 2.70427615 20.20602511 1 22 C-1.59745162 15.18168951 -1.41638909 8.22386659 -1 1 C-0.67 0.67 -0.34 0.34 0 0 Z " fill="#3B6C16" transform="translate(146,209)"/>
<path d="M0 0 C0.33 0.66 0.66 1.32 1 2 C-2.04484865 9.29290363 -6.53611751 15.35829885 -12 21 C-13.32 19.68 -14.64 18.36 -16 17 C-15.34773437 16.443125 -14.69546875 15.88625 -14.0234375 15.3125 C-8.63038449 10.60352156 -3.99126642 5.95445031 0 0 Z " fill="#EBF9C1" transform="translate(202,134)"/>
<path d="M0 0 C0.66 0 1.32 0 2 0 C3.80619523 4.46236469 4.11658501 7.31034294 3 12 C2.01 12.33 1.02 12.66 0 13 C-0.33 13.66 -0.66 14.32 -1 15 C-3.875 15.125 -3.875 15.125 -7 15 C-7.66 14.34 -8.32 13.68 -9 13 C-8.195625 12.71125 -7.39125 12.4225 -6.5625 12.125 C-3.8673532 11.26737432 -3.8673532 11.26737432 -3 9 C-2.2265625 8.1028125 -2.2265625 8.1028125 -1.4375 7.1875 C0.27835451 4.57641706 0.25524262 3.0629114 0 0 Z " fill="#EC940B" transform="translate(179,240)"/>
<path d="M0 0 C0.98120464 3.05263664 0.98120464 4.94736336 0 8 C-0.66 8 -1.32 8 -2 8 C-2.33 8.66 -2.66 9.32 -3 10 C-4.485 10.61875 -4.485 10.61875 -6 11.25 C-9.29612804 12.70228879 -9.29612804 12.70228879 -9.8125 16 C-9.874375 16.99 -9.93625 17.98 -10 19 C-10.33 19.99 -10.66 20.98 -11 22 C-11.33 22 -11.66 22 -12 22 C-12 20.35 -12 18.7 -12 17 C-13.65 17.33 -15.3 17.66 -17 18 C-14.47283309 15.46829599 -11.94109873 12.9418935 -9.39453125 10.4296875 C-8.54246094 9.58664063 -7.69039062 8.74359375 -6.8125 7.875 C-5.95269531 7.02679688 -5.09289062 6.17859375 -4.20703125 5.3046875 C-1.87938579 3.00850005 -1.87938579 3.00850005 0 0 Z " fill="#EAAF30" transform="translate(236,212)"/>
<path d="M0 0 C0.95465783 2.16967689 1.14401212 3.56328793 0.3984375 5.82421875 C-0.35870385 7.5684743 -1.17609198 9.28627131 -2 11 C-2.66 11 -3.32 11 -4 11 C-4.66 14.3 -5.32 17.6 -6 21 C-4.68 21 -3.36 21 -2 21 C-1.67 19.02 -1.34 17.04 -1 15 C-0.34 15.33 0.32 15.66 1 16 C0.01 18.31 -0.98 20.62 -2 23 C-3.66611905 23.042721 -5.33382885 23.04063832 -7 23 C-7.33 22.67 -7.66 22.34 -8 22 C-7.49509478 14.08981821 -4.37977484 6.56966226 0 0 Z " fill="#E5B34A" transform="translate(104,129)"/>
<path d="M0 0 C3.63 0 7.26 0 11 0 C11.66 1.98 12.32 3.96 13 6 C11.9790625 5.505 11.9790625 5.505 10.9375 5 C6.36991915 3.44507886 2.66245665 3.29807386 -1.8125 5.1875 C-4.32841931 7.27211886 -5.07870137 8.90108642 -6 12 C-6.33 12 -6.66 12 -7 12 C-7 9.69 -7 7.38 -7 5 C-6.01 5 -5.02 5 -4 5 C-4 4.34 -4 3.68 -4 3 C-3.01 3 -2.02 3 -1 3 C-0.67 2.01 -0.34 1.02 0 0 Z " fill="#FEF8DC" transform="translate(251,156)"/>
<path d="M0 0 C0.556875 0.226875 1.11375 0.45375 1.6875 0.6875 C1.39998893 3.90172633 0.58832842 4.78094717 -1.81640625 7.046875 C-2.82574219 7.83578125 -3.83507812 8.6246875 -4.875 9.4375 C-6.39287109 10.63632813 -6.39287109 10.63632813 -7.94140625 11.859375 C-8.72386719 12.46265625 -9.50632813 13.0659375 -10.3125 13.6875 C-10.6425 12.6975 -10.9725 11.7075 -11.3125 10.6875 C-7.5625 7.6875 -7.5625 7.6875 -5.3125 7.6875 C-5.3125 7.0275 -5.3125 6.3675 -5.3125 5.6875 C-7.2925 6.0175 -9.2725 6.3475 -11.3125 6.6875 C-4.51779801 -0.61051325 -4.51779801 -0.61051325 0 0 Z " fill="#F1FBD4" transform="translate(187.3125,152.3125)"/>
<path d="M0 0 C0.33 0.66 0.66 1.32 1 2 C0.0625 4.125 0.0625 4.125 -1 6 C-1.66 6 -2.32 6 -3 6 C-3.165 6.680625 -3.33 7.36125 -3.5 8.0625 C-5.68996539 12.35118222 -9.01294502 15.32759558 -13 18 C-15.76171875 18.703125 -15.76171875 18.703125 -18 19 C-17.360625 18.360625 -16.72125 17.72125 -16.0625 17.0625 C-15.61132812 16.61003906 -15.16015625 16.15757812 -14.6953125 15.69140625 C-13.40344402 14.40251443 -12.10544177 13.11976743 -10.8046875 11.83984375 C-6.97018984 8.04963896 -3.22146096 4.34196912 0 0 Z " fill="#FDF0C8" transform="translate(243,215)"/>
<path d="M0 0 C0.66 0.33 1.32 0.66 2 1 C0.6875 3.5 0.6875 3.5 -1 6 C-1.99 6 -2.98 6 -4 6 C-4.66 7.98 -5.32 9.96 -6 12 C-6.66 12 -7.32 12 -8 12 C-8.061875 12.721875 -8.12375 13.44375 -8.1875 14.1875 C-9.2536405 17.87798635 -11.14791164 19.49572729 -14 22 C-14.66 22.33 -15.32 22.66 -16 23 C-14.57653 16.83162998 -10.92178164 12.77281703 -7 8 C-5.8553125 6.4840625 -5.8553125 6.4840625 -4.6875 4.9375 C-4.130625 4.298125 -3.57375 3.65875 -3 3 C-2.34 3 -1.68 3 -1 3 C-0.67 2.01 -0.34 1.02 0 0 Z " fill="#FDEAB3" transform="translate(124,116)"/>
<path d="M0 0 C4.51399409 0.31677152 7.81884608 0.65098225 11.6875 3.0625 C14.9477455 4.96943605 16.336378 5.44407539 20 5 C20 4.34 20 3.68 20 3 C21.98 3.66 23.96 4.32 26 5 C25.67 5.66 25.34 6.32 25 7 C22.4375 7.625 22.4375 7.625 20 8 C20 8.66 20 9.32 20 10 C16.64236474 8.80858104 13.64389914 7.26451741 10.5625 5.5 C7.12333778 3.5503746 3.82361202 2.07845467 0 1 C0 0.67 0 0.34 0 0 Z " fill="#A4C736" transform="translate(198,100)"/>
<path d="M0 0 C0.66 0.33 1.32 0.66 2 1 C2.34939113 5.9108865 2.37887623 9.95357993 0.6875 14.625 C-2.99066945 17.87547533 -5.67704952 17.52192316 -10.44140625 17.30859375 C-13 17 -13 17 -16 16 C-15.67 15.01 -15.34 14.02 -15 13 C-14.34 13.33 -13.68 13.66 -13 14 C-9.38203558 14.27305392 -6.58431591 14.1905378 -3.125 13.0625 C0.13641652 9.89700749 -0.09154274 6.38572946 0 2 C0 1.34 0 0.68 0 0 Z " fill="#EDF9C4" transform="translate(184,89)"/>
<path d="M0 0 C0.66 0 1.32 0 2 0 C1.69611836 2.93752254 1.19330344 3.84080893 -1.125 5.75 C-4.7214169 7.31365952 -7.11397569 7.49458491 -11 7 C-13.4375 5 -13.4375 5 -15 3 C-14.34 3 -13.68 3 -13 3 C-12.67 2.34 -12.34 1.68 -12 1 C-10.35 1.33 -8.7 1.66 -7 2 C-7 2.99 -7 3.98 -7 5 C-6.401875 4.67 -5.80375 4.34 -5.1875 4 C-3 3 -3 3 0 3 C0 2.01 0 1.02 0 0 Z " fill="#A1C921" transform="translate(182,97)"/>
<path d="M0 0 C4.68270009 0.45908824 8.29366624 0.96754511 12 4 C12 5.32 12 6.64 12 8 C10.02 8 8.04 8 6 8 C6 6.68 6 5.36 6 4 C3.69 3.67 1.38 3.34 -1 3 C-0.67 2.01 -0.34 1.02 0 0 Z " fill="#609515" transform="translate(134,234)"/>
<path d="M0 0 C1.47928703 2.95857407 0.45088625 4.84799375 -0.375 8 C-0.65085938 9.0725 -0.92671875 10.145 -1.2109375 11.25 C-2 14 -2 14 -3 16 C-3.66 16 -4.32 16 -5 16 C-5.33 19.96 -5.66 23.92 -6 28 C-6.33 28 -6.66 28 -7 28 C-7.73470526 17.63249241 -5.58850564 8.80710058 0 0 Z " fill="#B5D548" transform="translate(136,159)"/>
<path d="M0 0 C2.45242165 2.97644337 3.80441227 5.73826056 5.0625 9.375 C5.39765625 10.34308594 5.7328125 11.31117188 6.078125 12.30859375 C6.38234375 13.19675781 6.6865625 14.08492187 7 15 C7.433125 16.134375 7.86625 17.26875 8.3125 18.4375 C9.03047312 21.11358164 8.98420554 22.44106559 8 25 C5.79463821 20.9728176 4.54339792 17.56454251 4 13 C3.01 13 2.02 13 1 13 C1 11.35 1 9.7 1 8 C0.34 7.67 -0.32 7.34 -1 7 C-0.67 4.69 -0.34 2.38 0 0 Z " fill="#B0D23D" transform="translate(209,117)"/>
<path d="M0 0 C0.65484375 0.43570313 1.3096875 0.87140625 1.984375 1.3203125 C8.76923907 5.7477238 15.70076908 9.49680299 23 13 C24.32 13.66 25.64 14.32 27 15 C23.7 14.67 20.4 14.34 17 14 C17 13.34 17 12.68 17 12 C16.45601562 11.89558594 15.91203125 11.79117188 15.3515625 11.68359375 C12.44158518 10.83767011 10.0278232 9.52477047 7.375 8.0625 C6.41335937 7.53785156 5.45171875 7.01320312 4.4609375 6.47265625 C2 5 2 5 0 3 C0 2.01 0 1.02 0 0 Z " fill="#E7F6D3" transform="translate(122,231)"/>
<path d="M0 0 C3.03997185 1.01332395 4.21220342 1.40769496 6 4 C5.6875 6.9375 5.6875 6.9375 5 10 C5 11.32 5 12.64 5 14 C1.6497537 10.18765077 -0.16974789 6.66714289 -2 2 C-1.34 1.34 -0.68 0.68 0 0 Z " fill="#6FA419" transform="translate(102,200)"/>
<path d="M0 0 C1.65 0.99 3.3 1.98 5 3 C3.66666667 4.33333333 2.33333333 5.66666667 1 7 C3.31 7.33 5.62 7.66 8 8 C8 9.32 8 10.64 8 12 C2.19657726 10.51194289 -2.17590879 7.40902445 -7 4 C-5.109375 3.41015625 -5.109375 3.41015625 -3 3 C-1.25 4.4375 -1.25 4.4375 0 6 C0 4.02 0 2.04 0 0 Z " fill="#6D9D30" transform="translate(132,230)"/>
<path d="M0 0 C0.33 0.66 0.66 1.32 1 2 C1.66 2.33 2.32 2.66 3 3 C2.67 3.33 2.34 3.66 2 4 C2.66 4.33 3.32 4.66 4 5 C3.67 5.99 3.34 6.98 3 8 C2.113125 7.7525 1.22625 7.505 0.3125 7.25 C-3.1170551 6.64710348 -3.1170551 6.64710348 -5.875 8.9375 C-6.57625 9.618125 -7.2775 10.29875 -8 11 C-8 7.35521088 -7.14197494 5.90696599 -5 3 C-2.875 2.3125 -2.875 2.3125 -1 2 C-0.67 1.34 -0.34 0.68 0 0 Z " fill="#558D16" transform="translate(158,185)"/>
<path d="M0 0 C1.04005702 3.38018531 1.08004482 6.4780279 1 10 C1.66 10 2.32 10 3 10 C4 13 4 13 3 16 C0.70895944 15.08358378 -0.75057101 14.30881685 -2.3125 12.375 C-3.38767069 8.66077398 -2.73433596 5.79406911 -2 2 C-1.34 1.34 -0.68 0.68 0 0 Z " fill="#EBAE2F" transform="translate(247,162)"/>
<path d="M0 0 C0.33 0.66 0.66 1.32 1 2 C2.65 2 4.3 2 6 2 C5.29875 2.66 4.5975 3.32 3.875 4 C0.50583305 7.34985941 -2.22468725 11.15652564 -5 15 C-6 12 -6 12 -4.78515625 9.08203125 C-4.21667969 8.00308594 -3.64820313 6.92414063 -3.0625 5.8125 C-2.49660156 4.72582031 -1.93070313 3.63914063 -1.34765625 2.51953125 C-0.90292969 1.68808594 -0.45820313 0.85664063 0 0 Z " fill="#82BB16" transform="translate(157,201)"/>
<path d="M0 0 C0.33 0.99 0.66 1.98 1 3 C0 5 0 5 -1.875 5.8125 C-4.64126132 7.35835192 -5.54655436 9.23845328 -7 12 C-8.32 11.34 -9.64 10.68 -11 10 C-11 7.36 -11 4.72 -11 2 C-10 4 -9 6 -8 8 C-7.236875 7.05125 -6.47375 6.1025 -5.6875 5.125 C-3.84465954 2.83390105 -2.53162583 1.68775056 0 0 Z " fill="#DFEDD3" transform="translate(156,222)"/>
<path d="M0 0 C1.32 0 2.64 0 4 0 C3.45912682 3.78611227 1.88277668 5.55400767 -1 8 C-1.66 8 -2.32 8 -3 8 C-3.33 8.99 -3.66 9.98 -4 11 C-4.99 11 -5.98 11 -7 11 C-5.125 6.25 -5.125 6.25 -4 4 C-3.01 4 -2.02 4 -1 4 C-0.67 2.68 -0.34 1.36 0 0 Z " fill="#9BC517" transform="translate(204,136)"/>
<path d="M0 0 C6.07299467 -0.36437968 9.51167349 0.25583674 15 3 C18.01838854 3.2540228 20.97879759 3.18127214 24 3 C23.67 4.98 23.34 6.96 23 9 C21.92621094 8.50628906 20.85242188 8.01257813 19.74609375 7.50390625 C18.31010625 6.85630405 16.87389639 6.20919476 15.4375 5.5625 C14.73302734 5.23701172 14.02855469 4.91152344 13.30273438 4.57617188 C8.81413082 2.5697454 4.89993224 1.45715531 0 1 C0 0.67 0 0.34 0 0 Z " fill="#EAF6C1" transform="translate(195,93)"/>
<path d="M0 0 C0 0.66 0 1.32 0 2 C-0.66 2 -1.32 2 -2 2 C-2 2.66 -2 3.32 -2 4 C-3.65 4.33 -5.3 4.66 -7 5 C-7 5.66 -7 6.32 -7 7 C-4.36 6.67 -1.72 6.34 1 6 C-2.44450737 8.29633824 -4.93812283 8.54016485 -9 9 C-9.33 7.35 -9.66 5.7 -10 4 C-9.34 4 -8.68 4 -8 4 C-8 3.34 -8 2.68 -8 2 C-2.25 0 -2.25 0 0 0 Z " fill="#E4B040" transform="translate(204,238)"/>
<path d="M0 0 C0.33 0 0.66 0 1 0 C0.84784664 10.12511454 -0.36943629 17.82430733 -5 27 C-6.15782198 23.61915982 -5.83835147 21.70336781 -4.625 18.375 C-4.34914062 17.59898437 -4.07328125 16.82296875 -3.7890625 16.0234375 C-3 14 -3 14 -2 12 C-1.61369961 9.96416877 -1.26403216 7.9212682 -0.9375 5.875 C-0.76089844 4.77929688 -0.58429688 3.68359375 -0.40234375 2.5546875 C-0.26957031 1.71164063 -0.13679687 0.86859375 0 0 Z " fill="#6E9B29" transform="translate(218,163)"/>
<path d="M0 0 C0.66 0 1.32 0 2 0 C0.32939586 6.3111712 -4.81444344 9.5429623 -10 13 C-12.1875 12.625 -12.1875 12.625 -14 12 C-12.23361856 10.51551984 -10.46173862 9.03758035 -8.6875 7.5625 C-7.70136719 6.73878906 -6.71523437 5.91507813 -5.69921875 5.06640625 C-3 3 -3 3 0 2 C0 1.34 0 0.68 0 0 Z " fill="#8CB537" transform="translate(188,155)"/>
<path d="M0 0 C1.32 0 2.64 0 4 0 C2.43187242 4.23394447 -0.34601998 6.47032152 -4 9 C-7.375 9.3125 -7.375 9.3125 -10 9 C-7.14788651 5.98943576 -4.7563292 3.74400999 -1 2 C-0.67 1.34 -0.34 0.68 0 0 Z " fill="#FEF9DE" transform="translate(136,107)"/>
<path d="M0 0 C0.66 0.33 1.32 0.66 2 1 C-0.37923909 4.83321853 -2.99322444 6.08008671 -7 8 C-8.81554159 9.56102491 -8.81554159 9.56102491 -10 11 C-10 10.34 -10 9.68 -10 9 C-10.7425 9.350625 -11.485 9.70125 -12.25 10.0625 C-15.21122875 11.0720098 -16.12062561 10.87980884 -19 10 C-17.87980469 9.44570312 -16.75960937 8.89140625 -15.60546875 8.3203125 C-14.13275962 7.58864809 -12.66010628 6.85687139 -11.1875 6.125 C-10.44951172 5.76019531 -9.71152344 5.39539063 -8.95117188 5.01953125 C-8.23896484 4.66503906 -7.52675781 4.31054688 -6.79296875 3.9453125 C-6.1383667 3.62062988 -5.48376465 3.29594727 -4.80932617 2.96142578 C-2.75347202 1.90744328 -2.75347202 1.90744328 0 0 Z " fill="#D7E9C9" transform="translate(201,202)"/>
<path d="M0 0 C0.66 0 1.32 0 2 0 C1.67 1.175625 1.34 2.35125 1 3.5625 C-0.53227012 10.29585602 -0.16270741 17.13917106 0 24 C-0.33 23.01 -0.66 22.02 -1 21 C-1.66 21 -2.32 21 -3 21 C-3.31806054 13.2723068 -3.32270836 7.06075526 0 0 Z " fill="#F5FDD8" transform="translate(130,167)"/>
<path d="M0 0 C0.66 0.66 1.32 1.32 2 2 C0.96939453 2.03867188 0.96939453 2.03867188 -0.08203125 2.078125 C-0.98308594 2.13484375 -1.88414063 2.1915625 -2.8125 2.25 C-3.70582031 2.29640625 -4.59914063 2.3428125 -5.51953125 2.390625 C-8.10581785 2.79561959 -8.10581785 2.79561959 -9.75 4.78125 C-10.9866527 6.97630855 -11.6559876 8.79686585 -12.1875 11.25 C-12.455625 12.4875 -12.72375 13.725 -13 15 C-13.33 15 -13.66 15 -14 15 C-14.78279267 7.01551481 -14.78279267 7.01551481 -11.6875 3 C-7.7539603 0.07271464 -4.81813207 -0.30754034 0 0 Z " fill="#9ABD3E" transform="translate(98,159)"/>
<path d="M0 0 C1.32 0.33 2.64 0.66 4 1 C3.64463519 3.81228361 3.19649652 4.82581484 1.0390625 6.73828125 C-0.15589844 7.51751953 -0.15589844 7.51751953 -1.375 8.3125 C-2.16648438 8.84488281 -2.95796875 9.37726563 -3.7734375 9.92578125 C-6 11 -6 11 -9 10 C-8 8 -8 8 -5.0625 6.6875 C-1.82477341 5.27599816 -1.82477341 5.27599816 -0.625 2.3125 C-0.41875 1.549375 -0.2125 0.78625 0 0 Z " fill="#47781E" transform="translate(201,196)"/>
<path d="M0 0 C1.67542976 0.28604898 3.34385343 0.61781233 5 1 C5.59720137 6.82271337 3.528243 10.9209404 1 16 C0.67 16 0.34 16 0 16 C-0.20086443 12.28400809 -0.1519437 11.22791555 2 8 C2.39013716 6.0103005 2.73202649 4.00980131 3 2 C0.03 4.475 0.03 4.475 -3 7 C-1.125 1.125 -1.125 1.125 0 0 Z " fill="#E7B43D" transform="translate(249,188)"/>
<path d="M0 0 C0.33 0 0.66 0 1 0 C1.28875 1.11375 1.5775 2.2275 1.875 3.375 C2.69241329 7.00291092 2.69241329 7.00291092 5 9 C7.99207581 12.36608529 8.78765361 15.7163761 10 20 C10.66 20.33 11.32 20.66 12 21 C11.01 21 10.02 21 9 21 C7.3013079 18.79766059 5.83270813 16.66599328 4.375 14.3125 C3.96765625 13.68666016 3.5603125 13.06082031 3.140625 12.41601562 C0.98804966 9.01252317 -0.6890304 6.10924116 -1 2 C-0.67 1.34 -0.34 0.68 0 0 Z " fill="#E4F5C8" transform="translate(105,192)"/>
<path d="M0 0 C1.32 0.33 2.64 0.66 4 1 C3.38125 1.061875 2.7625 1.12375 2.125 1.1875 C-0.18130265 1.813061 -0.18130265 1.813061 -1.1875 4.0625 C-2.19842768 7.71739237 -2.61630195 11.22696914 -3 15 C-3.66 14.67 -4.32 14.34 -5 14 C-5 13.01 -5 12.02 -5 11 C-5.99 11 -6.98 11 -8 11 C-8 10.01 -8 9.02 -8 8 C-7.34 8 -6.68 8 -6 8 C-5.67 6.68 -5.34 5.36 -5 4 C-4.01 4 -3.02 4 -2 4 C-1.34 2.68 -0.68 1.36 0 0 Z " fill="#EEF8C6" transform="translate(168,83)"/>
<path d="M0 0 C0.33 0.99 0.66 1.98 1 3 C1.66 3.33 2.32 3.66 3 4 C1.56877218 5.48523642 0.12979111 6.96300462 -1.3125 8.4375 C-2.51326172 9.67306641 -2.51326172 9.67306641 -3.73828125 10.93359375 C-6 13 -6 13 -9 14 C-8.67 12.68 -8.34 11.36 -8 10 C-7.01 10 -6.02 10 -5 10 C-5 8.68 -5 7.36 -5 6 C-4.01 6 -3.02 6 -2 6 C-1.855625 5.195625 -1.71125 4.39125 -1.5625 3.5625 C-1 1 -1 1 0 0 Z " fill="#FDFADD" transform="translate(229,214)"/>
<path d="M0 0 C0.33 0 0.66 0 1 0 C1.268125 1.0725 1.53625 2.145 1.8125 3.25 C3.07967517 7.70358329 3.07967517 7.70358329 6 11 C9.6426531 11.79013431 13.27987621 12 17 12 C17 12.66 17 13.32 17 14 C13.93570224 15.53214888 11.3834358 15.22938548 8 15 C3.85386952 13.20962547 1.79037453 11.14613048 0 7 C-0.1875 3.1875 -0.1875 3.1875 0 0 Z " fill="#E8F7CE" transform="translate(83,168)"/>
<path d="M0 0 C1.485 0.99 1.485 0.99 3 2 C2.79375 2.680625 2.5875 3.36125 2.375 4.0625 C1.89567412 7.81721942 2.8305383 10.42664482 4 14 C4.34135927 15.33130115 4.67925956 16.66358148 5 18 C4.01 18.66 3.02 19.32 2 20 C-0.36561846 12.84968433 -1.34274501 7.44613143 0 0 Z " fill="#98C904" transform="translate(131,175)"/>
<path d="M0 0 C0.93423645 3.01031744 1.04449911 3.86650268 0 7 C0.99 7 1.98 7 3 7 C2.67 6.01 2.34 5.02 2 4 C2.99 4 3.98 4 5 4 C5.33 3.01 5.66 2.02 6 1 C7.98 1 9.96 1 12 1 C8.74098981 4.51973101 5.1139069 7.52760275 1 10 C0.34 10 -0.32 10 -1 10 C-1.125 3.375 -1.125 3.375 0 0 Z " fill="#A4CB28" transform="translate(158,161)"/>
<path d="M0 0 C0.99 0.33 1.98 0.66 3 1 C2.06027344 1.99580078 2.06027344 1.99580078 1.1015625 3.01171875 C0.28429687 3.89472656 -0.53296875 4.77773437 -1.375 5.6875 C-2.59316406 6.99267578 -2.59316406 6.99267578 -3.8359375 8.32421875 C-5.88977509 10.86371107 -6.9900668 12.92025866 -8 16 C-9.28163882 12.15508355 -8.47641868 10.52025276 -7.03125 6.8671875 C-5.57461499 4.22979532 -3.67413059 3.26669344 -1 2 C-0.67 1.34 -0.34 0.68 0 0 Z " fill="#B0D81E" transform="translate(144,151)"/>
<path d="M0 0 C2.31 0.66 4.62 1.32 7 2 C8.125 5.75 8.125 5.75 7 8 C6.01 7.67 5.02 7.34 4 7 C4 6.34 4 5.68 4 5 C2.68 5 1.36 5 0 5 C-0.5625 3.0625 -0.5625 3.0625 -1 1 C-0.67 0.67 -0.34 0.34 0 0 Z " fill="#5A950A" transform="translate(125,228)"/>
<path d="M0 0 C0.33 0 0.66 0 1 0 C1 2.97 1 5.94 1 9 C1.99 9 2.98 9 4 9 C3.39816251 11.02045442 2.72693904 13.02111039 2 15 C1.01 15.495 1.01 15.495 0 16 C0 14.02 0 12.04 0 10 C-1.32 10.33 -2.64 10.66 -4 11 C-2.7874262 7.27566618 -1.49140021 3.62197194 0 0 Z " fill="#EBB43A" transform="translate(245,195)"/>
<path d="M0 0 C0.66 0.33 1.32 0.66 2 1 C-2.93654267 7.70459519 -2.93654267 7.70459519 -7.375 8.9375 C-8.24125 8.958125 -9.1075 8.97875 -10 9 C-10 9.66 -10 10.32 -10 11 C-11.65 11.33 -13.3 11.66 -15 12 C-10.58990583 7.14889642 -5.41995647 3.651893 0 0 Z " fill="#ECF8BE" transform="translate(174,159)"/>
<path d="M0 0 C3.18678372 2.92352767 5.21723295 5.81612841 7.25 9.625 C7.77078125 10.58664063 8.2915625 11.54828125 8.828125 12.5390625 C10 15 10 15 10 17 C9.34 17 8.68 17 8 17 C8 16.34 8 15.68 8 15 C7.34 15 6.68 15 6 15 C5.87625 13.329375 5.87625 13.329375 5.75 11.625 C5.5025 10.42875 5.255 9.2325 5 8 C3.68352881 7.30062468 2.34977849 6.63270867 1 6 C0.25 2.875 0.25 2.875 0 0 Z " fill="#E4F4C6" transform="translate(235,127)"/>
<path d="M0 0 C1.32 0.33 2.64 0.66 4 1 C-10.21359223 10 -10.21359223 10 -17 10 C-17 9.34 -17 8.68 -17 8 C-14.03 7.34 -11.06 6.68 -8 6 C-8 5.34 -8 4.68 -8 4 C-6.35 4 -4.7 4 -3 4 C-3 3.34 -3 2.68 -3 2 C-2.01 2 -1.02 2 0 2 C0 1.34 0 0.68 0 0 Z " fill="#F6FDD0" transform="translate(195,123)"/>
<path d="M0 0 C-3.65152587 3.32933241 -6.10385755 4.48998516 -11 5 C-12.66804677 5.32635698 -14.33524314 5.65725594 -16 6 C-15 3 -15 3 -13.14453125 2.05078125 C-8.62924723 0.62131948 -4.80015245 -0.3692425 0 0 Z " fill="#B8D82C" transform="translate(180,135)"/>
<path d="M0 0 C5.94 0.99 5.94 0.99 12 2 C11.67 2.99 11.34 3.98 11 5 C8.875 5.75 8.875 5.75 6 6 C2.6875 4.1875 2.6875 4.1875 0 2 C0 1.34 0 0.68 0 0 Z " fill="#98C70C" transform="translate(207,100)"/>
<path d="M0 0 C0.33 0 0.66 0 1 0 C1.1875 2.3125 1.1875 2.3125 1 5 C-0.4375 6.625 -0.4375 6.625 -2 8 C-2.33 8.99 -2.66 9.98 -3 11 C-3.66 11 -4.32 11 -5 11 C-5.33 12.65 -5.66 14.3 -6 16 C-7.3238515 13.35229699 -6.72884003 12.45512597 -5.8125 9.6875 C-4.46420997 5.83524277 -2.87291382 2.96867762 0 0 Z " fill="#E8F6BE" transform="translate(146,183)"/>
<path d="M0 0 C0.66 0.33 1.32 0.66 2 1 C1.34 2.32 0.68 3.64 0 5 C-0.99 5 -1.98 5 -3 5 C-3.433125 6.1446875 -3.433125 6.1446875 -3.875 7.3125 C-5 10 -5 10 -7 13 C-7.99 13 -8.98 13 -10 13 C-8.48446596 9.52224821 -6.4226544 7.0442016 -3.875 4.25 C-3.15054688 3.45078125 -2.42609375 2.6515625 -1.6796875 1.828125 C-0.84824219 0.92320312 -0.84824219 0.92320312 0 0 Z " fill="#679329" transform="translate(164,175)"/>
<path d="M0 0 C-1.65 1.65 -3.3 3.3 -5 5 C-5.99 4.67 -6.98 4.34 -8 4 C-8.33 4.66 -8.66 5.32 -9 6 C-10.32 5.34 -11.64 4.68 -13 4 C-11.59248779 3.13083113 -10.1735479 2.28014851 -8.75 1.4375 C-7.96109375 0.96183594 -7.1721875 0.48617187 -6.359375 -0.00390625 C-3.69155375 -1.13022151 -2.65498232 -1.0169313 0 0 Z " fill="#649D04" transform="translate(180,178)"/>
<path d="M0 0 C0.99 0 1.98 0 3 0 C4.23076923 5.41538462 4.23076923 5.41538462 3.0625 8.375 C2.711875 8.91125 2.36125 9.4475 2 10 C0.5 8.875 0.5 8.875 -1 7 C-1.25 3.875 -1.25 3.875 -1 1 C-0.67 0.67 -0.34 0.34 0 0 Z " fill="#78AC10" transform="translate(240,126)"/>
<path d="M0 0 C0.99 0.33 1.98 0.66 3 1 C-6.41002278 8.48291572 -6.41002278 8.48291572 -11 11 C-10.875 8.6875 -10.875 8.6875 -10 6 C-6.80081088 4.00939343 -3.6996929 2.7114794 0 2 C0 1.34 0 0.68 0 0 Z " fill="#A8CE26" transform="translate(188,147)"/>
<path d="M0 0 C0.99 0 1.98 0 3 0 C3 0.99 3 1.98 3 3 C4.32 3.33 5.64 3.66 7 4 C6.67 5.32 6.34 6.64 6 8 C4.02 7.34 2.04 6.68 0 6 C0 4.02 0 2.04 0 0 Z " fill="#86B809" transform="translate(228,113)"/>
<path d="M0 0 C0.66 0.33 1.32 0.66 2 1 C-2.09431239 5.91317487 -6.82653402 8.31732078 -13 10 C-13.66 9.67 -14.32 9.34 -15 9 C-14.25234375 8.60167969 -13.5046875 8.20335937 -12.734375 7.79296875 C-11.74953125 7.26316406 -10.7646875 6.73335937 -9.75 6.1875 C-8.77546875 5.66542969 -7.8009375 5.14335937 -6.796875 4.60546875 C-4.36644588 3.21034812 -2.19212301 1.73804039 0 0 Z " fill="#FCECBB" transform="translate(223,234)"/>
<path d="M0 0 C1.65 0 3.3 0 5 0 C2.46421396 2.02862883 -0.0714959 4.05617535 -2.625 6.0625 C-4.5457726 7.62944607 -6.29572385 9.20602511 -8 11 C-8.33 9.35 -8.66 7.7 -9 6 C-7.68 6 -6.36 6 -5 6 C-5 5.01 -5 4.02 -5 3 C-3.68 3 -2.36 3 -1 3 C-0.67 2.01 -0.34 1.02 0 0 Z " fill="#4D742D" transform="translate(155,220)"/>
<path d="M0 0 C4.11583349 3.50608038 6.90567018 8.04628837 9 13 C8.67 13.66 8.34 14.32 8 15 C7.401875 14.21625 6.80375 13.4325 6.1875 12.625 C4.08914751 9.85425677 4.08914751 9.85425677 1 8 C0.29947539 5.336937 0.22255182 2.75964263 0 0 Z " fill="#87B139" transform="translate(242,124)"/>
<path d="M0 0 C0.78375 0.04125 1.5675 0.0825 2.375 0.125 C2.375 0.785 2.375 1.445 2.375 2.125 C3.035 2.125 3.695 2.125 4.375 2.125 C4.045 3.445 3.715 4.765 3.375 6.125 C-0.31254757 5.62668276 -2.22990662 5.02432357 -4.625 2.125 C-2.625 0.125 -2.625 0.125 0 0 Z " fill="#8FC00A" transform="translate(221.625,105.875)"/>
<path d="M0 0 C-3.52331606 3.69948187 -3.52331606 3.69948187 -6 5 C-8.99654177 4.84426575 -11.1346274 4.03746249 -14 3 C-9.7368213 0.15788087 -5.03577274 -2.0143091 0 0 Z " fill="#99CC12" transform="translate(201,165)"/>
<path d="M0 0 C0.99 0 1.98 0 3 0 C4.62272991 3.61426206 6.05930735 7.02453772 7 10.875 C7.33 11.90625 7.66 12.9375 8 14 C8.99 14.33 9.98 14.66 11 15 C8.70703125 14.90625 8.70703125 14.90625 6 14 C4.19921875 11.09375 4.19921875 11.09375 2.6875 7.5 C2.17574219 6.3140625 1.66398438 5.128125 1.13671875 3.90625 C0 1 0 1 0 0 Z " fill="#78A32B" transform="translate(242,137)"/>
<path d="M0 0 C1.48034764 0.47550561 2.95925021 0.95551216 4.4375 1.4375 C5.26121094 1.70433594 6.08492187 1.97117188 6.93359375 2.24609375 C9 3 9 3 10 4 C10.04063832 5.66617115 10.042721 7.33388095 10 9 C8.02 9 6.04 9 4 9 C3.67 8.34 3.34 7.68 3 7 C4.65 7 6.3 7 8 7 C8 6.01 8 5.02 8 4 C7.236875 3.855625 6.47375 3.71125 5.6875 3.5625 C3 3 3 3 0 2 C0 1.34 0 0.68 0 0 Z " fill="#6B9538" transform="translate(146,238)"/>
<path d="M0 0 C1.32 0.33 2.64 0.66 4 1 C-1.59929592 4.35957755 -6.30206111 7 -13 7 C-13 7.66 -13 8.32 -13 9 C-13.66 8.67 -14.32 8.34 -15 8 C-14 6 -14 6 -11.6875 4.875 C-9 4 -9 4 -5 4 C-5 3.34 -5 2.68 -5 2 C-3.35 2 -1.7 2 0 2 C0 1.34 0 0.68 0 0 Z " fill="#FCEABA" transform="translate(209,233)"/>
<path d="M0 0 C2.4375 0.375 2.4375 0.375 5 1 C5.33 1.66 5.66 2.32 6 3 C9.02934491 3.65772428 9.02934491 3.65772428 12 4 C12.33 3.01 12.66 2.02 13 1 C14.32 1.33 15.64 1.66 17 2 C14.36701229 4.74746544 12.17866359 5.28598997 8.5 5.4375 C5.12185649 5.33732441 4.22738113 5.17192232 1.4375 3.0625 C0 1 0 1 0 0 Z " fill="#DB9B31" transform="translate(166,251)"/>
<path d="M0 0 C3.4113289 2.81434635 4.88422065 4.16059974 5.5 8.625 C5 12 5 12 2 15 C2.33 11.37 2.66 7.74 3 4 C1.68 3.67 0.36 3.34 -1 3 C-0.67 2.01 -0.34 1.02 0 0 Z " fill="#94B743" transform="translate(101,161)"/>
<path d="M0 0 C0.99 0.33 1.98 0.66 3 1 C2.61328125 1.42410156 2.2265625 1.84820312 1.828125 2.28515625 C-1.7394097 6.30304806 -4.48173429 10.25403771 -7 15 C-8.125 11.25 -8.125 11.25 -7 9 C-6.34 9 -5.68 9 -5 9 C-4.67 7.35 -4.34 5.7 -4 4 C-3.34 4 -2.68 4 -2 4 C-2 3.34 -2 2.68 -2 2 C-1.34 2 -0.68 2 0 2 C0 1.34 0 0.68 0 0 Z " fill="#FEF6D0" transform="translate(109,119)"/>
<path d="M0 0 C0.33 1.32 0.66 2.64 1 4 C0.01 4.495 0.01 4.495 -1 5 C-1.33 5.99 -1.66 6.98 -2 8 C-3.87617698 9.84499398 -5.92737609 11.3683599 -8 13 C-8.33 12.34 -8.66 11.68 -9 11 C-6.03 7.37 -3.06 3.74 0 0 Z " fill="#EFBD49" transform="translate(114,116)"/>
<path d="M0 0 C0.8125 1.6875 0.8125 1.6875 1 4 C-0.62449243 5.70779973 -2.29220027 7.37550757 -4 9 C-4 9.99 -4 10.98 -4 12 C-4.99 12 -5.98 12 -7 12 C-6.125 7.25 -6.125 7.25 -5 5 C-4.01 4.67 -3.02 4.34 -2 4 C-0.79117904 1.99983534 -0.79117904 1.99983534 0 0 Z " fill="#649E07" transform="translate(166,175)"/>
<path d="M0 0 C2.31 0 4.62 0 7 0 C3.96503913 2.50276394 1.06804717 3.91612312 -2.625 5.25 C-3.58664063 5.60578125 -4.54828125 5.9615625 -5.5390625 6.328125 C-8 7 -8 7 -10 6 C-9.67 5.34 -9.34 4.68 -9 4 C-6.93359375 3.3671875 -6.93359375 3.3671875 -4.4375 2.875 C-3.61121094 2.70742187 -2.78492188 2.53984375 -1.93359375 2.3671875 C-0.97646484 2.18542969 -0.97646484 2.18542969 0 2 C0 1.34 0 0.68 0 0 Z " fill="#F0FABE" transform="translate(171,133)"/>
<path d="M0 0 C-3.08809695 1.76462683 -4.23312136 2 -8 2 C-8 2.99 -8 3.98 -8 5 C-11.83887763 6.48320272 -14.06204091 7.22419163 -18 6 C-4.29015544 -2.14507772 -4.29015544 -2.14507772 0 0 Z " fill="#F9E69E" transform="translate(156,100)"/>
<path d="M0 0 C0 3 0 3 -2 6 C-2.16699232 9.12521833 -2.16699232 9.12521833 -2 12 C-2.99 12.495 -2.99 12.495 -4 13 C-4 11.35 -4 9.7 -4 8 C-5.65 8.33 -7.3 8.66 -9 9 C-6 6 -3 3 0 0 Z " fill="#EBB244" transform="translate(228,221)"/>
<path d="M0 0 C0.33 0 0.66 0 1 0 C0.91266424 1.60517097 0.80447776 3.20921662 0.6875 4.8125 C0.62949219 5.70582031 0.57148437 6.59914062 0.51171875 7.51953125 C-0.06313581 10.30604 -0.8206856 11.24135754 -3 13 C-3.66 12.67 -4.32 12.34 -5 12 C-3.35 8.04 -1.7 4.08 0 0 Z " fill="#FCEFC4" transform="translate(107,139)"/>
<path d="M0 0 C1.875 0.1875 1.875 0.1875 4 1 C5.25 3.5625 5.25 3.5625 6 6 C5.34 6 4.68 6 4 6 C3.67 6.66 3.34 7.32 3 8 C2.67 6.68 2.34 5.36 2 4 C1.01 4 0.02 4 -1 4 C-0.67 2.68 -0.34 1.36 0 0 Z " fill="#6EA706" transform="translate(243,133)"/>
<path d="M0 0 C2.28459758 2.28459758 2.97129748 4.12537344 4.125 7.125 C4.47820312 8.03507813 4.83140625 8.94515625 5.1953125 9.8828125 C5.46085938 10.58148438 5.72640625 11.28015625 6 12 C6.66 11.67 7.32 11.34 8 11 C8 11.99 8 12.98 8 14 C5.51277859 13.65693498 4.20431829 13.18161626 2.3125 11.5 C0.380793 7.8205581 0.2542679 4.10335782 0 0 Z " fill="#E9F6C0" transform="translate(130,192)"/>
<path d="M0 0 C-4.95 2.475 -4.95 2.475 -10 5 C-10 4.01 -10 3.02 -10 2 C-10.66 1.67 -11.32 1.34 -12 1 C-10.56496445 0.63597631 -9.12683494 0.28413409 -7.6875 -0.0625 C-6.88699219 -0.25972656 -6.08648437 -0.45695313 -5.26171875 -0.66015625 C-3 -1 -3 -1 0 0 Z " fill="#8AC218" transform="translate(197,185)"/>
<path d="M0 0 C0.66 0.33 1.32 0.66 2 1 C-0.31445295 3.74332921 -1.88360519 4.45890844 -5.4375 4.8125 C-6.19933594 4.90144531 -6.96117187 4.99039063 -7.74609375 5.08203125 C-10.31315505 4.98860268 -11.80706333 4.29378268 -14 3 C-11.47946405 1.73973202 -10.1457902 2.08125555 -7.375 2.4375 C-6.14910156 2.59025391 -6.14910156 2.59025391 -4.8984375 2.74609375 C-4.27195312 2.82988281 -3.64546875 2.91367188 -3 3 C-3 2.34 -3 1.68 -3 1 C-2.01 0.67 -1.02 0.34 0 0 Z " fill="#DEA94D" transform="translate(262,176)"/>
<path d="M0 0 C0.66 0 1.32 0 2 0 C2 2.31 2 4.62 2 7 C3.65 7.33 5.3 7.66 7 8 C7 8.33 7 8.66 7 9 C4.03 9 1.06 9 -2 9 C-2 5.20442119 -1.49821059 3.37097383 0 0 Z " fill="#FEF5D7" transform="translate(95,144)"/>
<path d="M0 0 C0.33 1.32 0.66 2.64 1 4 C0.01 4.33 -0.98 4.66 -2 5 C-2.73323796 7.01508358 -2.73323796 7.01508358 -3 9 C-3.66 8.67 -4.32 8.34 -5 8 C-4.75 5.125 -4.75 5.125 -4 2 C-1.9375 0.625 -1.9375 0.625 0 0 Z " fill="#F0A616" transform="translate(230,223)"/>
<path d="M0 0 C2.64752004 2.57784846 4.94432065 4.91648098 7 8 C4.69 8.33 2.38 8.66 0 9 C0 6.03 0 3.06 0 0 Z " fill="#ECF6DC" transform="translate(112,221)"/>
<path d="M0 0 C0.66 0 1.32 0 2 0 C1.690625 0.845625 1.38125 1.69125 1.0625 2.5625 C-0.01538821 6.0497854 -0.56581304 9.38177535 -1 13 C-0.34 13.33 0.32 13.66 1 14 C0.01 14 -0.98 14 -2 14 C-2 11.36 -2 8.72 -2 6 C-2.66 5.67 -3.32 5.34 -4 5 C-2.71937515 3.2925002 -1.38232443 1.62626404 0 0 Z " fill="#DCF193" transform="translate(158,158)"/>
<path d="M0 0 C6.0546875 -0.1953125 6.0546875 -0.1953125 8 0 C8.66 0.66 9.32 1.32 10 2 C7.69 1.67 5.38 1.34 3 1 C3.33 2.65 3.66 4.3 4 6 C2.68 5.67 1.36 5.34 0 5 C0 3.35 0 1.7 0 0 Z " fill="#AFCE42" transform="translate(194,94)"/>
<path d="M0 0 C0.33 0 0.66 0 1 0 C1 2.97 1 5.94 1 9 C0.34 9 -0.32 9 -1 9 C-1 9.66 -1 10.32 -1 11 C-1.99 11 -2.98 11 -4 11 C-2.7874262 7.27566618 -1.49140021 3.62197194 0 0 Z " fill="#FCEEC2" transform="translate(252,197)"/>
<path d="M0 0 C0.66 0 1.32 0 2 0 C0.86694836 4.44504873 -0.26301451 8.27769973 -3 12 C-3.99 12.33 -4.98 12.66 -6 13 C-6 12.34 -6 11.68 -6 11 C-5.34 11 -4.68 11 -4 11 C-3.896875 10.29875 -3.79375 9.5975 -3.6875 8.875 C-2.90640997 5.60862353 -1.57941257 2.9528148 0 0 Z " fill="#9BC31D" transform="translate(144,180)"/>
<path d="M0 0 C0.2475 0.515625 0.495 1.03125 0.75 1.5625 C3.88045981 8.08390584 3.88045981 8.08390584 9 13 C7.68 13.33 6.36 13.66 5 14 C4.896875 13.360625 4.79375 12.72125 4.6875 12.0625 C4.460625 11.381875 4.23375 10.70125 4 10 C3.01 9.67 2.02 9.34 1 9 C-0.4783226 6.04335481 -0.06032783 3.25770263 0 0 Z " fill="#FDEFCA" transform="translate(243,168)"/>
<path d="M0 0 C0.8125 1.6875 0.8125 1.6875 1 4 C-1.46026571 6.87030999 -3.85489214 8.90326143 -7 11 C-5.72278474 6.00724943 -3.82669043 3.42388092 0 0 Z " fill="#FDF2C7" transform="translate(115,128)"/>
<path d="M0 0 C0.99 0 1.98 0 3 0 C3.98248524 4.0527516 4.08159574 7.83861737 4 12 C3.01 12.33 2.02 12.66 1 13 C1.01160156 12.31292969 1.02320313 11.62585938 1.03515625 10.91796875 C1.04417969 10.01691406 1.05320313 9.11585938 1.0625 8.1875 C1.07410156 7.29417969 1.08570313 6.40085938 1.09765625 5.48046875 C1.11009967 2.86586209 1.11009967 2.86586209 0 0 Z " fill="#FDF2D0" transform="translate(183,239)"/>
<path d="M0 0 C7 8.75 7 8.75 7 13 C6.01 12.67 5.02 12.34 4 12 C4 10.68 4 9.36 4 8 C3.01 7.67 2.02 7.34 1 7 C0.67 4.69 0.34 2.38 0 0 Z " fill="#7AA731" transform="translate(104,196)"/>
<path d="M0 0 C0.66 0.33 1.32 0.66 2 1 C-0.31 4.96 -2.62 8.92 -5 13 C-5.66 12.01 -6.32 11.02 -7 10 C-6.34 9.01 -5.68 8.02 -5 7 C-4.34 7 -3.68 7 -3 7 C-2.67 5.35 -2.34 3.7 -2 2 C-1.34 2 -0.68 2 0 2 C0 1.34 0 0.68 0 0 Z " fill="#E8F7D9" transform="translate(153,185)"/>
<path d="M0 0 C1.32 0.33 2.64 0.66 4 1 C3.01 1.33 2.02 1.66 1 2 C-0.12516085 3.83284443 -0.12516085 3.83284443 -1 6 C-1.66666667 7.33333333 -2.33333333 8.66666667 -3 10 C-3.75 7.8125 -3.75 7.8125 -4 5 C-2.0625 2.1875 -2.0625 2.1875 0 0 Z " fill="#88BA07" transform="translate(90,161)"/>
<path d="M0 0 C0 0.66 0 1.32 0 2 C-1.28650706 2.69710731 -2.57940665 3.38242876 -3.875 4.0625 C-4.95394531 4.63677734 -4.95394531 4.63677734 -6.0546875 5.22265625 C-6.69664062 5.47917969 -7.33859375 5.73570312 -8 6 C-8.66 5.67 -9.32 5.34 -10 5 C-6.82795656 1.48809477 -4.74687042 0 0 0 Z " fill="#FDFDF2" transform="translate(182,158)"/>
<path d="M0 0 C1.25 1.5625 1.25 1.5625 2 4 C0.93237266 6.57001015 -0.46544943 8.6530403 -2 11 C-2.33 11 -2.66 11 -3 11 C-2.53199289 6.94393835 -2.12046792 3.53411321 0 0 Z " fill="#4B7B25" transform="translate(148,199)"/>
<path d="M0 0 C0.95465783 2.16967689 1.14401212 3.56328793 0.3984375 5.82421875 C-0.35870385 7.5684743 -1.17609198 9.28627131 -2 11 C-2.66 11 -3.32 11 -4 11 C-3.48964169 6.6109185 -2.47785723 3.66291938 0 0 Z " fill="#EAB640" transform="translate(104,129)"/>
<path d="M0 0 C0 2 0 2 -1.625 4.125 C-4.60465619 6.47736015 -6.29706315 6.33663062 -10 6 C-4.4 0 -4.4 0 0 0 Z " fill="#F1C348" transform="translate(138,99)"/>
<path d="M0 0 C1.03115279 3.26913624 0.9638984 5.86041348 0.5625 9.25 C0.46066406 10.14203125 0.35882813 11.0340625 0.25390625 11.953125 C0.17011719 12.62859375 0.08632812 13.3040625 0 14 C-1.32 14.33 -2.64 14.66 -4 15 C-3.69320312 14.45859375 -3.38640625 13.9171875 -3.0703125 13.359375 C-1.84371789 10.65549492 -1.36256224 8.17537342 -0.875 5.25 C-0.70742187 4.26515625 -0.53984375 3.2803125 -0.3671875 2.265625 C-0.24601563 1.51796875 -0.12484375 0.7703125 0 0 Z " fill="#E9F9BB" transform="translate(151,168)"/>
<path d="M0 0 C1.875 0.3125 1.875 0.3125 4 1 C6.20914 4.31371 6.22481553 5.3446021 6.125 9.1875 C6.10695313 10.08855469 6.08890625 10.98960937 6.0703125 11.91796875 C6.03550781 12.94857422 6.03550781 12.94857422 6 14 C5.67 14 5.34 14 5 14 C4.97421875 13.37351563 4.9484375 12.74703125 4.921875 12.1015625 C4.86515625 11.28429687 4.8084375 10.46703125 4.75 9.625 C4.70359375 8.81289062 4.6571875 8.00078125 4.609375 7.1640625 C4.2077908 4.81161073 4.2077908 4.81161073 1.953125 3.7109375 C1.30859375 3.47632813 0.6640625 3.24171875 0 3 C0 2.01 0 1.02 0 0 Z " fill="#E0AD50" transform="translate(260,161)"/>
<path d="M0 0 C0.66 0 1.32 0 2 0 C2 1.32 2 2.64 2 4 C1.34 4 0.68 4 0 4 C0 4.99 0 5.98 0 7 C-1.32 6.67 -2.64 6.34 -4 6 C-3.67 5.01 -3.34 4.02 -3 3 C-2.34 3 -1.68 3 -1 3 C-0.67 2.01 -0.34 1.02 0 0 Z " fill="#F7B30D" transform="translate(116,117)"/>
<path d="M0 0 C2.64 0 5.28 0 8 0 C8 0.33 8 0.66 8 1 C6.35 1 4.7 1 3 1 C2.67 1.99 2.34 2.98 2 4 C-0.64 4.33 -3.28 4.66 -6 5 C-5.34 4.34 -4.68 3.68 -4 3 C-2.68 3 -1.36 3 0 3 C0 2.01 0 1.02 0 0 Z " fill="#FEFCEB" transform="translate(148,102)"/>
<path d="M0 0 C1.41805831 0.28482368 2.83440379 0.57818144 4.25 0.875 C5.03890625 1.03742188 5.8278125 1.19984375 6.640625 1.3671875 C8.96831144 1.99150075 10.89031952 2.84838542 13 4 C10.39908727 5.30045636 9.2944464 4.78732009 6.5 4.125 C5.30890625 3.85042969 5.30890625 3.85042969 4.09375 3.5703125 C2 3 2 3 0 2 C0 1.34 0 0.68 0 0 Z " fill="#EBF8BE" transform="translate(195,100)"/>
<path d="M0 0 C-2.85584773 1.90389849 -4.9311762 2.69462177 -8.1875 3.625 C-9.08855469 3.88539063 -9.98960937 4.14578125 -10.91796875 4.4140625 C-11.94857422 4.70410156 -11.94857422 4.70410156 -13 5 C-13 4.34 -13 3.68 -13 3 C-8.44573816 0.33409063 -5.26053037 -0.31563182 0 0 Z " fill="#4F7A2C" transform="translate(176,214)"/>
<path d="M0 0 C1.2065625 0.0309375 1.2065625 0.0309375 2.4375 0.0625 C3.0975 2.0425 3.7575 4.0225 4.4375 6.0625 C3.7775 5.7325 3.1175 5.4025 2.4375 5.0625 C2.4375 4.0725 2.4375 3.0825 2.4375 2.0625 C0.48750871 2.25721111 0.48750871 2.25721111 -1.5625 3.0625 C-2.84686734 5.0462767 -2.84686734 5.0462767 -3.5625 7.0625 C-3.60504356 5.06295254 -3.60330783 3.06208364 -3.5625 1.0625 C-2.5625 0.0625 -2.5625 0.0625 0 0 Z " fill="#9ABA54" transform="translate(99.5625,187.9375)"/>
<path d="M0 0 C-1.32 0.33 -2.64 0.66 -4 1 C-4 1.66 -4 2.32 -4 3 C-6.64 3.66 -9.28 4.32 -12 5 C-12 4.01 -12 3.02 -12 2 C-7.82262526 0.40861915 -4.46839215 -0.21278058 0 0 Z " fill="#FDF6D0" transform="translate(146,95)"/>
<path d="M0 0 C0.66 0.33 1.32 0.66 2 1 C0.84414715 4.91211733 -0.35534962 7.8745041 -3 11 C-3 9.35 -3 7.7 -3 6 C-2.34 6 -1.68 6 -1 6 C-1.0309375 4.7934375 -1.0309375 4.7934375 -1.0625 3.5625 C-1 1 -1 1 0 0 Z " fill="#FEF6CE" transform="translate(242,197)"/>
<path d="M0 0 C0.66 0.33 1.32 0.66 2 1 C1.67 1.33 1.34 1.66 1 2 C1.99 2.66 2.98 3.32 4 4 C3 5 3 5 -0.0625 5.0625 C-1.031875 5.041875 -2.00125 5.02125 -3 5 C-3.33 4.01 -3.66 3.02 -4 2 C-2.125 0.9375 -2.125 0.9375 0 0 Z " fill="#4F8A03" transform="translate(192,187)"/>
<path d="M0 0 C0.33 0 0.66 0 1 0 C0.67 3.3 0.34 6.6 0 10 C-0.99 10.33 -1.98 10.66 -3 11 C-2.44894091 7.0507432 -1.61064629 3.65079826 0 0 Z " fill="#528C09" transform="translate(212,180)"/>
<path d="M0 0 C0.33 0 0.66 0 1 0 C1.61538462 7.26153846 1.61538462 7.26153846 -1.5 11 C-2.325 11.66 -3.15 12.32 -4 13 C-3.67 11.02 -3.34 9.04 -3 7 C-2.34 7 -1.68 7 -1 7 C-0.67 4.69 -0.34 2.38 0 0 Z " fill="#A5CA39" transform="translate(149,171)"/>
<path d="M0 0 C0 0.66 0 1.32 0 2 C-3.3 2 -6.6 2 -10 2 C-10 2.66 -10 3.32 -10 4 C-10.66 4 -11.32 4 -12 4 C-11.67 3.01 -11.34 2.02 -11 1 C-7.08609399 -0.47694566 -4.00565371 -1.60226148 0 0 Z " fill="#FDFDE9" transform="translate(156,91)"/>
<path d="M0 0 C2.31 0.66 4.62 1.32 7 2 C7 2.99 7 3.98 7 5 C5.35 5 3.7 5 2 5 C1.34 3.35 0.68 1.7 0 0 Z " fill="#509106" transform="translate(147,240)"/>
<path d="M0 0 C0.33 1.32 0.66 2.64 1 4 C-4.2734375 7.22265625 -4.2734375 7.22265625 -6 8 C-6.66 7.67 -7.32 7.34 -8 7 C-6.625 5.5 -6.625 5.5 -5 4 C-4.34 4 -3.68 4 -3 4 C-3 3.34 -3 2.68 -3 2 C-2.01 1.34 -1.02 0.68 0 0 Z " fill="#8AC615" transform="translate(169,177)"/>
<path d="M0 0 C1.485 0.99 1.485 0.99 3 2 C2.7834375 3.051875 2.7834375 3.051875 2.5625 4.125 C1.98521625 7.07556141 1.48304859 10.03270151 1 13 C-0.9078584 9.8250906 -1.1609041 7.89414789 -0.625 4.25 C-0.51414063 3.45078125 -0.40328125 2.6515625 -0.2890625 1.828125 C-0.19367188 1.22484375 -0.09828125 0.6215625 0 0 Z " fill="#A1CA14" transform="translate(131,175)"/>
<path d="M0 0 C0.99 0.33 1.98 0.66 3 1 C2 4 2 4 0 5 C0 5.66 0 6.32 0 7 C-0.99 7 -1.98 7 -3 7 C-2.38722388 4.03824877 -1.74627478 2.61941217 0 0 Z " fill="#A1CF0A" transform="translate(161,161)"/>
<path d="M0 0 C0.66 0 1.32 0 2 0 C2.2475 0.78375 2.495 1.5675 2.75 2.375 C4.15389099 5.32317108 5.00675737 5.9024777 8 7 C7.67 7.99 7.34 8.98 7 10 C3.66442368 7.0094833 1.84916079 4.06815373 0 0 Z " fill="#ECFAD0" transform="translate(243,124)"/>
<path d="M0 0 C2.31 1.98 4.62 3.96 7 6 C6.67 6.66 6.34 7.32 6 8 C4.02 7.01 2.04 6.02 0 5 C0 3.35 0 1.7 0 0 Z " fill="#DEF0BB" transform="translate(228,119)"/>
<path d="M0 0 C3.91402949 1.26941497 5.79072873 2.51167694 8 6 C4.62537285 5.45276317 2.91765 4.9451 0 3 C0 2.01 0 1.02 0 0 Z " fill="#F1FBD3" transform="translate(216,110)"/>
<path d="M0 0 C0.66 0.33 1.32 0.66 2 1 C0.0373772 3.04795423 -1.4277307 3.94976638 -4.26953125 4.19921875 C-6.51954383 4.18858877 -8.75385562 4.12958525 -11 4 C-10.67 3.34 -10.34 2.68 -10 2 C-7.67504723 1.61250787 -5.3400417 1.28241883 -3 1 C-2.01 0.67 -1.02 0.34 0 0 Z " fill="#FDF1C1" transform="translate(205,244)"/>
<path d="M0 0 C1.32 0 2.64 0 4 0 C5.75 2 5.75 2 7 4 C1.25 4.125 1.25 4.125 -1 3 C-0.67 2.01 -0.34 1.02 0 0 Z " fill="#569402" transform="translate(134,234)"/>
<path d="M0 0 C1.32 0 2.64 0 4 0 C3.67 1.98 3.34 3.96 3 6 C2.34 6 1.68 6 1 6 C0.67 4.02 0.34 2.04 0 0 Z " fill="#F1A911" transform="translate(237,212)"/>
<path d="M0 0 C1.65 0 3.3 0 5 0 C4.21625 0.556875 3.4325 1.11375 2.625 1.6875 C-0.08704858 4.07668565 -0.96133543 5.60073413 -2 9 C-2.33 9 -2.66 9 -3 9 C-3 6.69 -3 4.38 -3 2 C-2.01 2 -1.02 2 0 2 C0 1.34 0 0.68 0 0 Z " fill="#FEF3CF" transform="translate(247,159)"/>
<path d="M0 0 C0 0.33 0 0.66 0 1 C-0.93972656 1.19916016 -0.93972656 1.19916016 -1.8984375 1.40234375 C-3.12433594 1.66724609 -3.12433594 1.66724609 -4.375 1.9375 C-5.18710938 2.11152344 -5.99921875 2.28554687 -6.8359375 2.46484375 C-9.029463 2.92330693 -9.029463 2.92330693 -11 4 C-11 3.01 -11 2.02 -11 1 C-6.8204355 -1.78637633 -4.85331323 -0.79562512 0 0 Z " fill="#EEF9CC" transform="translate(98,158)"/>
<path d="M0 0 C1.65 0 3.3 0 5 0 C2.3401439 3.44216672 -0.90288286 3.99504674 -5 5 C-5.33 4.34 -5.66 3.68 -6 3 C-4.02 2.67 -2.04 2.34 0 2 C0 1.34 0 0.68 0 0 Z " fill="#EEF9B7" transform="translate(155,140)"/>
<path d="M0 0 C1.32 0 2.64 0 4 0 C2.75023244 3.65316671 2.32901247 4.78065836 -1 7 C-0.67 4.69 -0.34 2.38 0 0 Z " fill="#E6AC30" transform="translate(241,211)"/>
<path d="M0 0 C0.66 0.33 1.32 0.66 2 1 C0.02 3.97 0.02 3.97 -2 7 C-2.99 6.67 -3.98 6.34 -5 6 C-3.35 4.02 -1.7 2.04 0 0 Z " fill="#467F02" transform="translate(158,207)"/>
<path d="M0 0 C1.98 0.495 1.98 0.495 4 1 C2.02 5.455 2.02 5.455 0 10 C-1.00000429 5.99998285 -0.80688405 3.94476647 0 0 Z " fill="#FEF7D4" transform="translate(245,188)"/>
<path d="M0 0 C0.66 0 1.32 0 2 0 C2.33 1.32 2.66 2.64 3 4 C1.68 4.99 0.36 5.98 -1 7 C-1.625 4.625 -1.625 4.625 -2 2 C-1.34 1.34 -0.68 0.68 0 0 Z " fill="#75A817" transform="translate(168,172)"/>
<path d="M0 0 C1.60080151 4.00200378 0.29279692 7.04556236 -1 11 C-1.66 10.34 -2.32 9.68 -3 9 C-2.56237193 5.82719649 -1.22638495 2.94332389 0 0 Z " fill="#9DCB11" transform="translate(149,167)"/>
<path d="M0 0 C0.33 0.66 0.66 1.32 1 2 C0.22265625 3.9453125 0.22265625 3.9453125 -0.9375 6.125 C-1.31777344 6.84945312 -1.69804687 7.57390625 -2.08984375 8.3203125 C-2.39019531 8.87460938 -2.69054687 9.42890625 -3 10 C-3.99 9.34 -4.98 8.68 -6 8 C-4.02 5.36 -2.04 2.72 0 0 Z " fill="#DBF587" transform="translate(202,134)"/>
<path d="M0 0 C3.33727786 1.17255709 5.77437487 2.18868404 8 5 C8 5.66 8 6.32 8 7 C7.34 7 6.68 7 6 7 C6 6.34 6 5.68 6 5 C5.38125 4.731875 4.7625 4.46375 4.125 4.1875 C2 3 2 3 0 0 Z " fill="#E4F3C8" transform="translate(122,221)"/>
<path d="M0 0 C0.33 0.66 0.66 1.32 1 2 C1.99 2 2.98 2 4 2 C4.33 3.32 4.66 4.64 5 6 C3.35 5.67 1.7 5.34 0 5 C-0.5625 3.0625 -0.5625 3.0625 -1 1 C-0.67 0.67 -0.34 0.34 0 0 Z " fill="#5A9906" transform="translate(118,222)"/>
<path d="M0 0 C1.32 0.33 2.64 0.66 4 1 C3.67 1.99 3.34 2.98 3 4 C1.02 4 -0.96 4 -3 4 C-2.67 3.34 -2.34 2.68 -2 2 C-1.34 2 -0.68 2 0 2 C0 1.34 0 0.68 0 0 Z " fill="#337205" transform="translate(173,210)"/>
<path d="M0 0 C0.99 0.33 1.98 0.66 3 1 C1.35 2.98 -0.3 4.96 -2 7 C-2.33 6.01 -2.66 5.02 -3 4 C-1.5625 1.8125 -1.5625 1.8125 0 0 Z " fill="#E7F6D4" transform="translate(158,178)"/>
<path d="M0 0 C0.625 1.8125 0.625 1.8125 1 4 C0.01 5.485 0.01 5.485 -1 7 C-2.32 6.67 -3.64 6.34 -5 6 C-3.35 4.02 -1.7 2.04 0 0 Z " fill="#DFF0BE" transform="translate(105,173)"/>
<path d="M0 0 C0.93423645 3.01031744 1.04449911 3.86650268 0 7 C1.98 7.495 1.98 7.495 4 8 C2.35 8.66 0.7 9.32 -1 10 C-1.125 3.375 -1.125 3.375 0 0 Z " fill="#ABC842" transform="translate(158,161)"/>
<path d="M0 0 C0.99 0.33 1.98 0.66 3 1 C1.68 3.64 0.36 6.28 -1 9 C-1.33 9 -1.66 9 -2 9 C-2.25 3.375 -2.25 3.375 0 0 Z " fill="#B0D339" transform="translate(152,162)"/>
<path d="M0 0 C0.33 1.32 0.66 2.64 1 4 C-0.65 5.32 -2.3 6.64 -4 8 C-4.66 7.67 -5.32 7.34 -6 7 C-4.02 4.69 -2.04 2.38 0 0 Z " fill="#97BD37" transform="translate(196,147)"/>
<path d="M0 0 C0.99 0.33 1.98 0.66 3 1 C0.36 2.98 -2.28 4.96 -5 7 C-4.67 5.68 -4.34 4.36 -4 3 C-2.68 2.67 -1.36 2.34 0 2 C0 1.34 0 0.68 0 0 Z " fill="#B3D23F" transform="translate(188,147)"/>
<path d="M0 0 C-0.6875 1.9375 -0.6875 1.9375 -2 4 C-4.625 4.75 -4.625 4.75 -7 5 C-2.25 0 -2.25 0 0 0 Z " fill="#FCF0C1" transform="translate(133,111)"/>
<path d="M0 0 C2.97 0.495 2.97 0.495 6 1 C6 1.66 6 2.32 6 3 C7.65 3 9.3 3 11 3 C11 3.33 11 3.66 11 4 C4.6 4.49230769 4.6 4.49230769 1.5625 2 C1.046875 1.34 0.53125 0.68 0 0 Z " fill="#A7C73B" transform="translate(167,100)"/>
<path d="M0 0 C1.32 0 2.64 0 4 0 C3.67 1.98 3.34 3.96 3 6 C2.34 6 1.68 6 1 6 C0.67 4.02 0.34 2.04 0 0 Z " fill="#E0EECD" transform="translate(155,241)"/>
<path d="M0 0 C0.66 0 1.32 0 2 0 C2 0.66 2 1.32 2 2 C3.32 2 4.64 2 6 2 C6 3.65 6 5.3 6 7 C1.125 3.375 1.125 3.375 0 0 Z " fill="#70A02A" transform="translate(107,214)"/>
<path d="M0 0 C0.99 0.495 0.99 0.495 2 1 C2.73075648 3.3140622 3.40138258 5.64828869 4 8 C2.68 7.34 1.36 6.68 0 6 C0 4.02 0 2.04 0 0 Z " fill="#E3F2C2" transform="translate(96,195)"/>
<path d="M0 0 C0.66 0.33 1.32 0.66 2 1 C1.3125 2.9375 1.3125 2.9375 0 5 C-2.625 5.75 -2.625 5.75 -5 6 C-3.35 4.02 -1.7 2.04 0 0 Z " fill="#84AD41" transform="translate(164,175)"/>
<path d="M0 0 C1.98 0 3.96 0 6 0 C1.375 4 1.375 4 -2 4 C-2 3.34 -2 2.68 -2 2 C-1.34 2 -0.68 2 0 2 C0 1.34 0 0.68 0 0 Z " fill="#B2D71A" transform="translate(174,135)"/>
<path d="M0 0 C0.99 0.33 1.98 0.66 3 1 C3 1.66 3 2.32 3 3 C2.34 3 1.68 3 1 3 C1 3.66 1 4.32 1 5 C-0.98 5.99 -0.98 5.99 -3 7 C-1.125 2.25 -1.125 2.25 0 0 Z " fill="#BDDC4A" transform="translate(206,114)"/>
</svg>
