<?xml version="1.0" encoding="UTF-8"?>
<svg version="1.1" xmlns="http://www.w3.org/2000/svg" width="163" height="163">
<path d="M0 0 C1.60284348 -0.02409439 1.60284348 -0.02409439 3.23806763 -0.04867554 C8.12761647 -0.09338072 13.0170325 -0.13420301 17.90673828 -0.15722656 C20.4787706 -0.17375967 23.05075747 -0.2010142 25.62255859 -0.23925781 C29.34480457 -0.29427816 33.06597526 -0.31594194 36.78857422 -0.33056641 C37.92747101 -0.35323578 39.0663678 -0.37590515 40.23977661 -0.39926147 C47.64996436 -0.37984098 53.55529833 0.77821018 59.65576172 5.19287109 C64.08861426 10.49651399 65.76405291 15.4073586 65.81689453 22.27758789 C65.82650208 23.28931564 65.83610962 24.3010434 65.8460083 25.34342957 C65.85025818 26.43198746 65.85450806 27.52054535 65.85888672 28.64208984 C65.86458679 29.76927933 65.87028687 30.89646881 65.87615967 32.05781555 C65.88560451 34.44421451 65.8921416 36.83062648 65.89599609 39.21704102 C65.90567861 42.84919327 65.93669824 46.48077403 65.96826172 50.11279297 C65.97479447 52.43505525 65.98004387 54.75732156 65.98388672 57.07958984 C65.99623352 58.15802658 66.00858032 59.23646332 66.02130127 60.34757996 C66.00001412 67.63567932 65.45342253 74.61973926 60.82373047 80.53271484 C60.17017578 81.05994141 59.51662109 81.58716797 58.84326172 82.13037109 C58.19744141 82.67564453 57.55162109 83.22091797 56.88623047 83.78271484 C50.59782246 87.75839836 44.20507018 87.49973313 37.01123047 87.49365234 C35.88687088 87.49793747 34.76251129 87.5022226 33.6040802 87.50663757 C31.22963126 87.5123698 28.85516477 87.51288931 26.48071289 87.50854492 C22.86622805 87.50539113 19.25256699 87.52883772 15.63818359 87.55419922 C13.32503358 87.55647307 11.01188138 87.55717531 8.69873047 87.55615234 C7.62656784 87.56536209 6.55440521 87.57457184 5.44975281 87.58406067 C-1.81525944 87.53974062 -8.75601789 86.94843266 -14.68408203 82.39599609 C-15.21130859 81.75146484 -15.73853516 81.10693359 -16.28173828 80.44287109 C-16.82701172 79.80865234 -17.37228516 79.17443359 -17.93408203 78.52099609 C-21.93241991 71.9198621 -21.65136063 64.90324719 -21.64501953 57.41552734 C-21.64930466 56.29021103 -21.65358978 55.16489471 -21.65800476 54.00547791 C-21.66373105 51.63280915 -21.66426091 49.26012285 -21.65991211 46.88745117 C-21.65675181 43.27085244 -21.68023494 39.655072 -21.70556641 36.03857422 C-21.70783963 33.72672629 -21.70854279 31.41487617 -21.70751953 29.10302734 C-21.71672928 28.02884048 -21.72593903 26.95465363 -21.73542786 25.84791565 C-21.68925386 18.30236837 -21.02709651 12.28847674 -15.90673828 6.38037109 C-10.42980856 1.70494328 -7.2548207 0.09946433 0 0 Z " fill="#0F3E3C" transform="translate(59.34423828125,33.80712890625)"/>
<path d="M0 0 C0.66 0 1.32 0 2 0 C6.76350645 8.18727671 7.33448173 16.72366581 6 26 C4.02172509 32.04861931 -0.43454429 36.11343901 -6 39 C-8.75939279 40.10217126 -11.52479074 41.09255402 -14.3515625 42.0078125 C-17.14029944 43.05256056 -19.49522415 44.39947536 -22 46 C-23.60072386 42.79855229 -23.35797145 39.48208592 -23 36 C-19.98742815 27.91362292 -12.63641711 22.8539605 -6.328125 17.3046875 C-3.79809835 15.14718295 -3.79809835 15.14718295 -3 12 C-3.59167969 12.54269531 -4.18335937 13.08539063 -4.79296875 13.64453125 C-5.58316406 14.35996094 -6.37335938 15.07539062 -7.1875 15.8125 C-7.96480469 16.52019531 -8.74210937 17.22789063 -9.54296875 17.95703125 C-15.60803059 23 -15.60803059 23 -19 23 C-19 21.68 -19 20.36 -19 19 C-21.21635387 22.32453081 -21.9136805 25.16593119 -23 29 C-23.93376749 31.36891753 -24.95656528 33.67598631 -26 36 C-29 34 -29 34 -30 31 C-30.68232344 26.63468074 -30.9205089 22.71630368 -28.7890625 18.7421875 C-22.70057096 11.2244726 -14.01722311 8.18577434 -5.12890625 5.08984375 C-2.61027498 3.80048939 -1.62163036 2.27406473 0 0 Z " fill="#F4F5EF" transform="translate(93,54)"/>
<path d="M0 0 C0.66 0 1.32 0 2 0 C2.25652344 0.6290625 2.51304688 1.258125 2.77734375 1.90625 C6.44379754 10.10330493 11.68639647 16.34713538 20.0625 20 C21.031875 20.33 22.00125 20.66 23 21 C23 21.66 23 22.32 23 23 C14.98569984 22.35885599 10.24979655 18.92284738 5 13 C-0.24956889 5.59145348 -0.24956889 5.59145348 -1 1 C-0.67 0.67 -0.34 0.34 0 0 Z " fill="#E3BB40" transform="translate(51,83)"/>
<path d="M0 0 C0.66 0 1.32 0 2 0 C1.27252447 9.09344412 -3.17705137 13.42671044 -9.68359375 19.265625 C-13.52265011 22.1400618 -16.19153539 23 -21 23 C-20.505 21.515 -20.505 21.515 -20 20 C-18.34676671 19.3252109 -16.69284923 18.65203922 -15.03515625 17.98828125 C-7.17451049 14.17111546 -3.27398601 7.82293773 0 0 Z " fill="#E8BD3F" transform="translate(110,83)"/>
<path d="M0 0 C7.36571247 0.30690469 11.70358113 3.62353563 16.76953125 8.8125 C20.56379549 13.09604893 23 16.09110592 23 22 C22.34 22 21.68 22 21 22 C20.04061307 20.49705948 19.15770376 18.94499493 18.3125 17.375 C13.71176318 9.4880226 8.19585897 5.73846198 0 2 C0 1.34 0 0.68 0 0 Z " fill="#EBC447" transform="translate(89,46)"/>
<path d="M0 0 C0 0.66 0 1.32 0 2 C-0.64066406 2.27972656 -1.28132813 2.55945312 -1.94140625 2.84765625 C-11.49495964 7.27560723 -16.77416101 12.3650871 -21 22 C-21.66 22 -22.32 22 -23 22 C-22.17677543 13.35614206 -17.42401582 9.21710987 -11.21875 3.734375 C-7.39765326 0.74746135 -4.86849983 -0.27047221 0 0 Z " fill="#E5C147" transform="translate(74,46)"/>
<path d="M0 0 C2.5 0.125 2.5 0.125 3.5 1.125 C3.625 4.125 3.625 4.125 3.5 7.125 C2.5 8.125 2.5 8.125 0.0625 8.3125 C-2.5 8.125 -2.5 8.125 -4.5 6.125 C-3.77607362 0.18880368 -3.77607362 0.18880368 0 0 Z " fill="#F6D558" transform="translate(113.5,71.875)"/>
<path d="M0 0 C2.5625 0.1875 2.5625 0.1875 4.5625 2.1875 C4.00694444 6.74305556 4.00694444 6.74305556 2.5625 8.1875 C0.0625 8.3125 0.0625 8.3125 -2.4375 8.1875 C-3.4375 7.1875 -3.4375 7.1875 -3.5625 4.1875 C-3.39891479 0.26145498 -3.39891479 0.26145498 0 0 Z " fill="#F9D759" transform="translate(49.4375,71.8125)"/>
<path d="M0 0 C2.4375 0.1875 2.4375 0.1875 3.4375 1.1875 C3.625 3.625 3.625 3.625 3.4375 6.1875 C2.7775 6.8475 2.1175 7.5075 1.4375 8.1875 C-1.1875 7.8125 -1.1875 7.8125 -3.5625 7.1875 C-4.1875 4.8125 -4.1875 4.8125 -4.5625 2.1875 C-2.5625 0.1875 -2.5625 0.1875 0 0 Z " fill="#F3CA4A" transform="translate(81.5625,41.8125)"/>
<path d="M0 0 C2.00720923 0.28674418 4.0085944 0.61866701 6 1 C6.04254356 2.99954746 6.04080783 5.00041636 6 7 C5 8 5 8 2.5 8.125 C0 8 0 8 -1 7 C-1.125 4 -1.125 4 -1 1 C-0.67 0.67 -0.34 0.34 0 0 Z " fill="#F1CC4F" transform="translate(79,102)"/>
<path d="M0 0 C0.66 0.33 1.32 0.66 2 1 C-0.24923704 2.2930106 -2.49935185 3.58444977 -4.75 4.875 C-5.38421875 5.23980469 -6.0184375 5.60460937 -6.671875 5.98046875 C-9.74250368 7.7396831 -12.80851875 9.46873374 -16 11 C-13.90429706 5.76074266 -10.2092636 4.28887991 -5.375 2.015625 C-3 1 -3 1 0 0 Z " fill="#476765" transform="translate(90,75)"/>
<path d="M0 0 C0.33 0.99 0.66 1.98 1 3 C-0.40893147 4.63171123 -1.82745958 6.25513945 -3.25 7.875 C-4.03890625 8.77992187 -4.8278125 9.68484375 -5.640625 10.6171875 C-7.74691403 12.74439993 -9.25651526 13.90512306 -12 15 C-10.64056757 10.7434165 -8.85503926 8.64856388 -5.4375 5.8125 C-2.24707165 3.28073479 -2.24707165 3.28073479 0 0 Z " fill="#2D5453" transform="translate(91,63)"/>
<path d="M0 0 C-8 4 -8 4 -16 8 C-14.49048817 3.77336686 -11.8148346 2.16921968 -8 0 C-4.58593331 -1.0321597 -3.42913537 -1.14304512 0 0 Z " fill="#345957" transform="translate(89,84)"/>
<path d="M0 0 C0 0.66 0 1.32 0 2 C-5.445 4.475 -5.445 4.475 -11 7 C-9 2 -9 2 -7.1875 0.6875 C-4.68810383 -0.09802451 -2.60506718 -0.14472595 0 0 Z " fill="#EAC94F" transform="translate(74,46)"/>
<path d="M0 0 C0.33 0.66 0.66 1.32 1 2 C0.22265625 3.9453125 0.22265625 3.9453125 -0.9375 6.125 C-1.31777344 6.84945312 -1.69804688 7.57390625 -2.08984375 8.3203125 C-2.39019531 8.87460938 -2.69054688 9.42890625 -3 10 C-3.66 10 -4.32 10 -5 10 C-4.56802365 5.2482602 -3.67230705 3.07999946 0 0 Z " fill="#F1C340" transform="translate(56,58)"/>
<path d="M0 0 C0.625 1.875 0.625 1.875 1 4 C-1 6 -1 6 -3.625 6.125 C-4.40875 6.08375 -5.1925 6.0425 -6 6 C-6.33 5.01 -6.66 4.02 -7 3 C-5.5459375 2.814375 -5.5459375 2.814375 -4.0625 2.625 C-2.5465625 2.315625 -2.5465625 2.315625 -1 2 C-0.67 1.34 -0.34 0.68 0 0 Z " fill="#EDC343" transform="translate(53,74)"/>
<path d="M0 0 C-0.33 1.32 -0.66 2.64 -1 4 C-3.375 4.1875 -3.375 4.1875 -6 4 C-6.66 3.01 -7.32 2.02 -8 1 C-2.25 0 -2.25 0 0 0 Z " fill="#F2C543" transform="translate(117,76)"/>
<path d="M0 0 C0.66 0.33 1.32 0.66 2 1 C-0.64 3.64 -3.28 6.28 -6 9 C-6 6 -6 6 -3.5625 3.375 C-2.716875 2.59125 -1.87125 1.8075 -1 1 C-0.67 0.67 -0.34 0.34 0 0 Z " fill="#052121" transform="translate(48,36)"/>
<path d="M0 0 C1.2065625 0.0309375 1.2065625 0.0309375 2.4375 0.0625 C2.7675 0.7225 3.0975 1.3825 3.4375 2.0625 C2.303125 2.18625 1.16875 2.31 0 2.4375 C-1.7634375 2.746875 -1.7634375 2.746875 -3.5625 3.0625 C-3.8925 3.7225 -4.2225 4.3825 -4.5625 5.0625 C-3.43829114 0.08386076 -3.43829114 0.08386076 0 0 Z " fill="#D9C65B" transform="translate(81.5625,41.9375)"/>
</svg>
