<?xml version="1.0" encoding="UTF-8"?>
<svg version="1.1" xmlns="http://www.w3.org/2000/svg" width="80" height="80">
<path d="M0 0 C0.82214493 -0.00524185 1.64428986 -0.0104837 2.49134827 -0.0158844 C4.22525913 -0.02229026 5.95921354 -0.02098621 7.69311523 -0.01245117 C10.33591659 -0.00394404 12.97655271 -0.0327155 15.61914062 -0.06445312 C17.30859311 -0.06606549 18.99804939 -0.06548692 20.6875 -0.0625 C21.86432594 -0.07935097 21.86432594 -0.07935097 23.06492615 -0.09654236 C28.27277857 -0.03089494 31.32581449 0.92052644 35.41015625 4.43359375 C38.24713985 8.03583654 37.7337507 12.53495158 37.74609375 16.92578125 C37.75275055 17.74934113 37.75940735 18.572901 37.76626587 19.42141724 C37.77637628 21.16129325 37.78108339 22.90120792 37.78076172 24.64111328 C37.78512998 27.29264783 37.8214509 29.94251032 37.859375 32.59375 C37.86524465 34.28775475 37.86921305 35.98176737 37.87109375 37.67578125 C37.88546478 38.46346893 37.89983582 39.25115662 37.91464233 40.06271362 C37.87162972 45.28737302 36.93997319 48.33733004 33.41015625 52.43359375 C29.80791346 55.27057735 25.30879842 54.7571882 20.91796875 54.76953125 C20.09440887 54.77618805 19.270849 54.78284485 18.42233276 54.78970337 C16.68245675 54.79981378 14.94254208 54.80452089 13.20263672 54.80419922 C10.55110217 54.80856748 7.90123968 54.8448884 5.25 54.8828125 C3.55599525 54.88868215 1.86198263 54.89265055 0.16796875 54.89453125 C-0.61971893 54.90890228 -1.40740662 54.92327332 -2.21896362 54.93807983 C-7.44362302 54.89506722 -10.49358004 53.96341069 -14.58984375 50.43359375 C-17.38319488 46.86433969 -16.89576508 42.50196102 -16.890625 38.16015625 C-16.89491013 37.35879242 -16.89919525 36.55742859 -16.90361023 35.73178101 C-16.90934428 34.03897037 -16.9098606 32.34613509 -16.90551758 30.65332031 C-16.90236313 28.07443775 -16.92580802 25.49670912 -16.95117188 22.91796875 C-16.95344565 21.26953269 -16.954148 19.62109356 -16.953125 17.97265625 C-16.96233475 17.20684235 -16.97154449 16.44102844 -16.98103333 15.65200806 C-16.94015327 10.87799732 -16.33700002 7.50692463 -13.58984375 3.43359375 C-9.47927094 -0.09835376 -5.18963029 -0.01936863 0 0 Z " fill="#F0F0ED" transform="translate(29.58984375,12.56640625)"/>
<path d="M0 0 C5.39274641 0.82965329 9.10220655 3.84231897 12.375 8.0625 C14 11 14 11 14 14 C14.99 14.66 15.98 15.32 17 16 C16.505 18.475 16.505 18.475 16 21 C15.34 21 14.68 21 14 21 C13.9175 21.886875 13.835 22.77375 13.75 23.6875 C12.75609991 28.07722539 11.04495782 30.58279668 7.3203125 33.1640625 C2.59277185 35.98435499 -0.57193357 37 -6 37 C-13.10742995 34.72409667 -17.83427537 31.24858694 -22 25 C-22 24.01 -22 23.02 -22 22 C-21.34 22 -20.68 22 -20 22 C-19.608125 22.9075 -19.21625 23.815 -18.8125 24.75 C-16.91518515 28.1520818 -15.18613886 29.82001025 -12 32 C-11.67 32 -11.34 32 -11 32 C-11.0825 30.96875 -11.165 29.9375 -11.25 28.875 C-10.88651884 23.24104205 -8.12210041 19.70989037 -4 16 C-5.98 16.99 -5.98 16.99 -8 18 C-8.33 17.67 -8.66 17.34 -9 17 C-9.99 19.97 -10.98 22.94 -12 26 C-12.66 25.67 -13.32 25.34 -14 25 C-14.36173167 21.92528078 -14.47585964 19.06722573 -14 16 C-9.75783463 11.08801905 -3.8202597 8.70308504 2 6 C2 5.01 2 4.02 2 3 C1.34 2.67 0.68 2.34 0 2 C0 1.34 0 0.68 0 0 Z " fill="#F8F8F0" transform="translate(44,21)"/>
<path d="M0 0 C0.99 -0.33 1.98 -0.66 3 -1 C3.99 -0.34 4.98 0.32 6 1 C5.90234375 2.7734375 5.90234375 2.7734375 5 5 C2.12890625 6.8515625 2.12890625 6.8515625 -1.4375 8.625 C-6.05588584 10.84498417 -6.05588584 10.84498417 -10 14 C-10.24253813 16.21072977 -10.24253813 16.21072977 -10.125 18.625 C-10.08375 20.06875 -10.0425 21.5125 -10 23 C-8.02 18.545 -8.02 18.545 -6 14 C-5.01 14 -4.02 14 -3 14 C-1.31763529 13.37400383 0.3523962 12.71247732 2 12 C1.2575 12.70125 0.515 13.4025 -0.25 14.125 C-4.24069903 18.29709444 -7.23952718 21.43691123 -7.25 27.375 C-7.12625 29.169375 -7.12625 29.169375 -7 31 C-12.02210841 29.56511188 -14.04714931 27.13399097 -17 23 C-17 22.01 -17 21.02 -17 20 C-17.99 19.67 -18.98 19.34 -20 19 C-19.01 18.67 -18.02 18.34 -17 18 C-17.2475 16.96875 -17.495 15.9375 -17.75 14.875 C-18.06255446 10.03040594 -17.10117575 8.65779704 -14 5 C-9.33543519 0.49335014 -6.43788565 -1.28757713 0 0 Z " fill="#FBFCF5" transform="translate(41,23)"/>
<path d="M0 0 C3.0272325 3.0272325 3.17352056 6.20561689 3.3125 10.375 C3.21287714 15.04194795 2.35171199 17.56848534 -1 21 C-4.23905346 22.65398475 -7.54572348 23.87548594 -11 25 C-11.99 25.33 -12.98 25.66 -14 26 C-14.50632171 20.68362203 -13.24708376 18.17482197 -10 14 C-8.25 12.125 -8.25 12.125 -7 11 C-8.98 11.99 -8.98 11.99 -11 13 C-11.33 12.67 -11.66 12.34 -12 12 C-12.99 14.97 -13.98 17.94 -15 21 C-15.66 20.67 -16.32 20.34 -17 20 C-17.36173167 16.92528078 -17.47585964 14.06722573 -17 11 C-13.1963701 6.59579696 -8.29169886 4.48008496 -3.07421875 2.015625 C-1.06049115 1.16852791 -1.06049115 1.16852791 0 0 Z " fill="#69A307" transform="translate(47,26)"/>
<path d="M0 0 C0.66 1.32 1.32 2.64 2 4 C-1.04722047 8.5098863 -3.876604 10.23009956 -9 12 C-9.99 12 -10.98 12 -12 12 C-12.99 14.97 -13.98 17.94 -15 21 C-15.66 20.67 -16.32 20.34 -17 20 C-17.36173167 16.92528078 -17.47585964 14.06722573 -17 11 C-13.1963701 6.59579696 -8.29169886 4.48008496 -3.07421875 2.015625 C-1.06049115 1.16852791 -1.06049115 1.16852791 0 0 Z " fill="#ADD81C" transform="translate(47,26)"/>
<path d="M0 0 C-0.4375 2.25 -0.4375 2.25 -2 5 C-4.86642925 6.68445543 -7.89170475 7.83706885 -11 9 C-12.010625 9.4125 -13.02125 9.825 -14.0625 10.25 C-14.701875 10.4975 -15.34125 10.745 -16 11 C-16 9.02 -16 7.04 -16 5 C-14.68 5 -13.36 5 -12 5 C-9.43998016 3.92412092 -9.43998016 3.92412092 -6.875 2.5 C-2.19444444 0 -2.19444444 0 0 0 Z " fill="#3F7B10" transform="translate(49,41)"/>
<path d="M0 0 C2 2 2 2 2 5 C-1.64634939 8.53240097 -6.21223486 11.27725007 -11 13 C-11.66 12.67 -12.32 12.34 -13 12 C-11.71372289 10.82739389 -10.42080217 9.6620717 -9.125 8.5 C-8.40570313 7.8503125 -7.68640625 7.200625 -6.9453125 6.53125 C-5 5 -5 5 -3 5 C-2.690625 4.360625 -2.38125 3.72125 -2.0625 3.0625 C-1 1 -1 1 0 0 Z " fill="#8EC00A" transform="translate(48,30)"/>
<path d="M0 0 C5.40607479 0.83170381 9.10666971 3.87761066 12.4375 8.0625 C12.953125 9.031875 13.46875 10.00125 14 11 C13.67 11.99 13.34 12.98 13 14 C12.62488281 13.45730469 12.24976563 12.91460937 11.86328125 12.35546875 C8.95566105 8.29065965 6.62918916 5.18600599 2 3 C1.34 2.67 0.68 2.34 0 2 C0 1.34 0 0.68 0 0 Z " fill="#9EC73B" transform="translate(44,21)"/>
<path d="M0 0 C0 0.66 0 1.32 0 2 C-1.0725 2.556875 -2.145 3.11375 -3.25 3.6875 C-6.67068775 5.6323265 -8.69039595 7.7830515 -11 11 C-11.98230498 12.0173873 -12.97469597 13.02596117 -14 14 C-13.58102573 9.25162494 -11.4249342 6.16988591 -8 3 C-2.9 0 -2.9 0 0 0 Z " fill="#F7C03B" transform="translate(36,21)"/>
<path d="M0 0 C0.66 0 1.32 0 2 0 C2.391875 0.9075 2.78375 1.815 3.1875 2.75 C5.11427747 6.20491133 6.80378291 7.73926108 10 10 C11.1446875 10.86625 11.1446875 10.86625 12.3125 11.75 C12.869375 12.1625 13.42625 12.575 14 13 C10.09813806 12.72777707 8.32155906 12.27669035 5.3125 9.6875 C0 3.51351351 0 3.51351351 0 0 Z " fill="#7EAF37" transform="translate(22,43)"/>
<path d="M0 0 C1 3 1 3 0.1796875 4.71875 C-2.48086037 8.35111475 -4.72755968 11.20107776 -9 13 C-9.99 12.67 -10.98 12.34 -12 12 C-11.46890625 11.63648438 -10.9378125 11.27296875 -10.390625 10.8984375 C-5.84855246 7.66594062 -2.76940714 4.8464625 0 0 Z " fill="#F2B73A" transform="translate(57,43)"/>
<path d="M0 0 C-1.47692308 4.67692308 -1.47692308 4.67692308 -4.125 6.3125 C-4.74375 6.539375 -5.3625 6.76625 -6 7 C-6 6.34 -6 5.68 -6 5 C-7.32 4.67 -8.64 4.34 -10 4 C-8.71086513 3.32845067 -7.41859796 2.66291141 -6.125 2 C-5.40570313 1.62875 -4.68640625 1.2575 -3.9453125 0.875 C-2 0 -2 0 0 0 Z " fill="#4C880E" transform="translate(49,41)"/>
<path d="M0 0 C0.66 0.33 1.32 0.66 2 1 C1.52949219 1.38671875 1.05898438 1.7734375 0.57421875 2.171875 C-2.6817612 4.89530336 -5.65453533 7.41281874 -8 11 C-8 7.20442119 -7.49821059 5.37097383 -6 2 C-5.01 2 -4.02 2 -3 2 C-2.01 1.34 -1.02 0.68 0 0 Z " fill="#E9F2CF" transform="translate(41,35)"/>
<path d="M0 0 C1.98 0.495 1.98 0.495 4 1 C4 2.32 4 3.64 4 5 C2.35 4.67 0.7 4.34 -1 4 C-0.67 2.68 -0.34 1.36 0 0 Z " fill="#91BF2C" transform="translate(20,36)"/>
<path d="M0 0 C1.98 0.495 1.98 0.495 4 1 C3.67 2.32 3.34 3.64 3 5 C1.68 5 0.36 5 -1 5 C-0.67 3.35 -0.34 1.7 0 0 Z " fill="#F2AE32" transform="translate(57,36)"/>
<path d="M0 0 C1.32 0 2.64 0 4 0 C3.67 1.65 3.34 3.3 3 5 C2.01 4.67 1.02 4.34 0 4 C0 2.68 0 1.36 0 0 Z " fill="#EEA628" transform="translate(38,54)"/>
<path d="M0 0 C0.99 0.33 1.98 0.66 3 1 C-2.14285714 5.42857143 -2.14285714 5.42857143 -6 6 C-4 4 -2 2 0 0 Z " fill="#80B41B" transform="translate(41,37)"/>
</svg>
